<svg xmlns="http://www.w3.org/2000/svg" viewBox="0 0 97.33984 84.57115" x="0px" y="0px"><title>cheese 2</title><g data-name="Camada 2"><g data-name="Camada 1"><path d="M32.70088,54.84436A8.875,8.875,0,1,1,44.844,51.67017,8.88523,8.88523,0,0,1,32.70088,54.84436Zm6.94778-11.86554A4.875,4.875,0,1,0,41.39223,49.649,4.88,4.88,0,0,0,39.64866,42.97882Z"/><path d="M95.72827,30.91107l.00415-.00494L66.03027,2.923a10.63635,10.63635,0,0,0-12.582-1.53271L3.68164,29.45483A6.01273,6.01273,0,0,0,0,34.99042v4.33593s2.82227-.45947,3.07031-.45947a5.105,5.105,0,0,1,0,10.21c-.248,0-3.07031-.459-3.07031-.459V61.654a6.01032,6.01032,0,0,0,6.00293,6.00293H20.92285s-.45312-2.72266-.45312-2.90039a3.48341,3.48341,0,0,1,3.374-3.49707A3.65855,3.65855,0,0,1,26.793,62.902a2.93938,2.93938,0,0,1,.626,2.415l-.40332,2.33984H91.33691A6.01032,6.01032,0,0,0,97.33984,61.654V34.99042A5.97441,5.97441,0,0,0,95.72827,30.91107ZM55.41309,4.87469a6.65732,6.65732,0,0,1,7.873.959L87.84961,28.987H12.65479ZM93.33984,61.654a2.0051,2.0051,0,0,1-2.00293,2.00293H31.38184A7.314,7.314,0,0,0,30.041,60.5661a7.58676,7.58676,0,0,0-6.33692-3.30469,7.46413,7.46413,0,0,0-7.15527,6.39551H6.00293A2.00511,2.00511,0,0,1,4,61.654V53.03a9.10617,9.10617,0,0,0,.001-18.11573c-.09728-.00993.229-.84345.27209-.9158a2.07946,2.07946,0,0,1,.68132-.69369,2.31022,2.31022,0,0,1,1.298-.31775c.16708.00121,85.03882,0,85.0845,0a1.99079,1.99079,0,0,1,1.12452.347l.41748.39356a1.98509,1.98509,0,0,1,.46093,1.26288Z"/><circle cx="55.9628" cy="41.21989" r="4.08213"/><path d="M74.79714,55.88909A7.875,7.875,0,1,1,85.572,53.07256,7.88361,7.88361,0,0,1,74.79714,55.88909Zm5.93719-10.13964a3.875,3.875,0,1,0,1.38591,5.30194A3.87935,3.87935,0,0,0,80.73433,45.74945Z"/><path d="M64.29492,25.96714a6.25,6.25,0,1,1,6.25-6.25A6.257,6.257,0,0,1,64.29492,25.96714Zm0-8.5a2.25,2.25,0,1,0,2.25,2.25A2.25278,2.25278,0,0,0,64.29492,17.46714Z"/><circle cx="50.45117" cy="15.60484" r="3.13542"/><circle cx="43.47314" cy="23.7287" r="2.23844"/></g></g><text x="0" y="82.65692" fill="#000000" font-size="5px" font-weight="bold" font-family="'Helvetica Neue', Helvetica, Arial-Unicode, Arial, Sans-serif">Created by Luiz Carvalho</text><text x="0" y="87.65692" fill="#000000" font-size="5px" font-weight="bold" font-family="'Helvetica Neue', Helvetica, Arial-Unicode, Arial, Sans-serif">from the Noun Project</text></svg>