<svg xmlns="http://www.w3.org/2000/svg" viewBox="0 0 64 80" x="0px" y="0px"><path d="M25.30328,12.58655A6.97875,6.97875,0,0,0,30,6a2,2,0,0,0-4,0,1,1,0,0,1-2,0,2,2,0,0,0-4,0,1,1,0,0,1-2,0,2,2,0,0,0-4,0v5.52179a8.97418,8.97418,0,0,1,11.30328,1.06476Z"/><path d="M6.10059,24H10V20.10059A5.01485,5.01485,0,0,0,6.10059,24Z"/><path d="M56,32a4,4,0,0,0,0-8,1,1,0,0,1,0-2,4,4,0,1,0-4-4v1A11.01245,11.01245,0,0,1,41,30H37A11.01245,11.01245,0,0,1,26,19a7,7,0,0,0-14,0V31A19.01917,19.01917,0,0,0,27.60468,49.679,9.99409,9.99409,0,0,1,34,32h2v2H34a8,8,0,0,0,0,16H45a7.00818,7.00818,0,0,0,7-7,.99974.99974,0,0,1,1-1h3a4,4,0,0,0,0-8,1,1,0,0,1,0-2ZM17,20a1,1,0,1,1,1-1A1,1,0,0,1,17,20Z"/><polygon points="36 60 36 62 45 62 45 60 43 60 43 52 41 52 41 60 36 60"/><polygon points="25 60 25 62 34 62 34 60 32 60 32 52 30 52 30 60 25 60"/><text x="0" y="79" fill="#000000" font-size="5px" font-weight="bold" font-family="'Helvetica Neue', Helvetica, Arial-Unicode, Arial, Sans-serif">Created by luketaibai</text><text x="0" y="84" fill="#000000" font-size="5px" font-weight="bold" font-family="'Helvetica Neue', Helvetica, Arial-Unicode, Arial, Sans-serif">from the Noun Project</text></svg>