<svg xmlns="http://www.w3.org/2000/svg" xmlns:xlink="http://www.w3.org/1999/xlink" version="1.1" x="0px" y="0px" viewBox="0 0 100 125" enable-background="new 0 0 100 100" xml:space="preserve"><path d="M41.98,66.739l-10.773,9.133l1.154,18.409H28.52l-3.951-21.992l6.66-5.647L41.98,66.739z M95,30.729  c-0.001-1.626-0.648-3.184-1.797-4.334l-7.106-7.106c-1.456-1.456-3.415-2.287-5.467-2.339l-8.22-8.22  c-1.933-1.933-4.556-3.02-7.29-3.02h-8.028l7.198,2.843c1.756,0.694,3.288,1.856,4.429,3.361l3.809,5.025h-8.467l1.448,2.139  c1.476,2.18,3.938,3.486,6.57,3.486h0.419L63.874,36.71H25.653c-4.206,0-8.232,1.708-11.154,4.733l-0.127,0.132L5,36.835v2.517  c0,1.472,0.446,2.91,1.281,4.124l3.21,4.67l2.541,12.389l-2.812,4.219l4.026,29.536h3.842l-0.006-18.416l13.382-11.346l25.16,0.226  v29.53l3.713-0.003l1.918-20.492l8.691-8.662c5.295-5.277,8.856-12.044,10.207-19.396l2.19-11.914h3.516l3.516,7.031h2.812v-7.045  C93.763,33.665,95.002,32.343,95,30.729z M65.781,72.254l4.784,22.029h3.842l-4.381-26.259L65.781,72.254z"/><text x="0" y="115" fill="#000000" font-size="5px" font-weight="bold" font-family="'Helvetica Neue', Helvetica, Arial-Unicode, Arial, Sans-serif">Created by Laymik</text><text x="0" y="120" fill="#000000" font-size="5px" font-weight="bold" font-family="'Helvetica Neue', Helvetica, Arial-Unicode, Arial, Sans-serif">from the Noun Project</text></svg>