<svg xmlns="http://www.w3.org/2000/svg" viewBox="0 0 64 80" x="0px" y="0px"><g><path d="M49,16H25.414l-2.559-2.559A3.445,3.445,0,0,0,23,12.5,3.5,3.5,0,0,0,19.5,9H10.657a4.968,4.968,0,0,0-3.535,1.465L3.329,14.258A4.535,4.535,0,0,0,6.536,22H10V35.7a8.489,8.489,0,0,0,2.558,6.032A8.181,8.181,0,0,0,14,42.845V54a1,1,0,0,0,1,1h4a1,1,0,0,0,.99-.858l1.569-10.986.022-.012q.271-.138.531-.3l.055-.033A8,8,0,0,0,23.274,42H48.713c.034.029.07.054.1.082.107.092.218.178.331.264.093.071.186.144.283.211.126.088.256.169.388.25.088.055.176.111.267.163.145.082.3.155.446.228.084.04.166.084.251.121.156.069.317.129.479.188.086.032.171.066.258.095.154.05.313.091.471.132.1.027.2.056.3.079.139.03.281.051.423.074.059.01.118.023.177.032l2.023,3.234-1.878,6.573A1,1,0,0,0,54,55h5a1,1,0,0,0,.961-.726l2-7a.994.994,0,0,0-.024-.626L59.923,41.28A8.4,8.4,0,0,0,62,35.741V29A13.015,13.015,0,0,0,49,16ZM6.536,20a2.535,2.535,0,0,1-1.793-4.328l3.793-3.793a3.014,3.014,0,0,1,2.015-.868A3.947,3.947,0,0,0,10,13v7Zm11.6,33H16V43.723c.015,0,.03.005.044.009a7.692,7.692,0,0,0,.978.2l.093.014A7.458,7.458,0,0,0,18,44h.011l.177,0c.15,0,.3-.018.446-.03.073-.006.147-.007.219-.015.173-.019.344-.048.515-.078.023,0,.046,0,.069-.007Zm40.113,0h-2.92l1.635-5.726a.994.994,0,0,0-.113-.8l-1.6-2.566c.027,0,.053-.012.08-.017.125-.021.246-.051.369-.079.142-.031.285-.058.424-.1.03-.008.058-.02.087-.029a7.586,7.586,0,0,0,1.219-.476c.033-.017.068-.029.1-.046.137-.07.269-.151.4-.229.1-.058.2-.114.3-.177.031-.02.064-.036.095-.057l1.63,4.345ZM60,35.741a6.391,6.391,0,0,1-1.919,4.582l-.011.009a6.2,6.2,0,0,1-.754.621c-.026.018-.051.037-.078.055a5.813,5.813,0,0,1-.762.434c-.055.026-.111.051-.168.076a5.561,5.561,0,0,1-.8.282c-.05.013-.1.023-.154.036a5.651,5.651,0,0,1-.894.146H54.46c-.151.011-.3.01-.451.01s-.29-.007-.454-.018h-.006c-.091-.007-.182-.012-.273-.023s-.172-.025-.258-.04c-.123-.02-.246-.042-.367-.07-.074-.018-.148-.038-.221-.058-.129-.035-.256-.073-.382-.117q-.1-.035-.2-.072c-.128-.049-.254-.1-.378-.161-.062-.029-.124-.059-.185-.09-.123-.062-.242-.13-.36-.2-.059-.036-.119-.07-.176-.107-.117-.076-.231-.158-.343-.242-.052-.04-.106-.077-.158-.118-.122-.1-.238-.2-.353-.311A5.977,5.977,0,0,1,48,36V35H46v1a7.94,7.94,0,0,0,1.082,4H24.918A7.94,7.94,0,0,0,26,36V33H24v3a5.98,5.98,0,0,1-1.773,4.253c-.015.013-.035.018-.049.032a6.628,6.628,0,0,1-2.948,1.584,5.889,5.889,0,0,1-1.013.12c-.044,0-.089.006-.134.007a5.156,5.156,0,0,1-.6-.024c-.038,0-.076-.01-.115-.015a5.181,5.181,0,0,1-.566-.095l-.065-.016a5.758,5.758,0,0,1-1.285-.477c-.023-.011-.048-.015-.071-.025A6.177,6.177,0,0,1,13.956,40.3,6.478,6.478,0,0,1,12,35.7V13a2,2,0,0,1,2-2h5.5a1.5,1.5,0,0,1,0,3H16v2h3.5a3.467,3.467,0,0,0,2.247-.839l2.546,2.546A1,1,0,0,0,25,18H49A11.013,11.013,0,0,1,60,29Z"/></g><text x="0" y="79" fill="#000000" font-size="5px" font-weight="bold" font-family="'Helvetica Neue', Helvetica, Arial-Unicode, Arial, Sans-serif">Created by monkik</text><text x="0" y="84" fill="#000000" font-size="5px" font-weight="bold" font-family="'Helvetica Neue', Helvetica, Arial-Unicode, Arial, Sans-serif">from the Noun Project</text></svg>