<svg xmlns="http://www.w3.org/2000/svg" xmlns:xlink="http://www.w3.org/1999/xlink" version="1.1" x="0px" y="0px" viewBox="0 0 100 125" enable-background="new 0 0 100 100" xml:space="preserve"><g><path d="M81.425,44.756l-8.167-20.299h0.834c0.745,0,1.35-0.604,1.35-1.35v-5.978c0-0.745-0.604-1.35-1.35-1.35h-0.76l3.617-8.173   c0.185-0.417,0.146-0.899-0.103-1.282c-0.25-0.383-0.675-0.613-1.132-0.613H35.241c-0.005,0-0.009,0.002-0.014,0.002H24.281   c-0.457,0-0.883,0.23-1.132,0.613s-0.287,0.865-0.103,1.283l3.617,8.17h-0.759c-0.745,0-1.35,0.604-1.35,1.35v5.978   c0,0.745,0.604,1.35,1.35,1.35h0.835l-8.167,20.299c-0.065,0.162-0.088,0.334-0.088,0.504h-0.01V85.65   c0,4.785,5.846,8.637,10.686,8.637h33.186h17.826c0.745,0,1.35-0.604,1.35-1.35V45.26C81.522,45.086,81.489,44.916,81.425,44.756z    M78.823,45.521v44.66l-6.214-4.824V30.076L78.823,45.521z M21.175,46.609h39.822v32.137H21.175V46.609z M63.696,45.52   l6.214-15.443v55.281l-6.214,4.824V45.52z M27.255,21.757v-3.278h1.483H71.26h1.482v3.278H71.26H28.738H27.255z M73.641,8.411   l-2.382,5.383l-2.383-5.383H73.641z M26.355,8.413h6.811h2.953h29.805l3.261,7.365l0.001,0.002h-39.28h-0.288L26.355,8.413z    M29.65,24.457h39.611L61.435,43.91H21.823L29.65,24.457z M21.175,85.65v-4.205h39.822v10.143H29.161   C25.674,91.588,21.175,88.709,21.175,85.65z M66.287,91.588l4.973-3.859l4.973,3.859H66.287z"/><path d="M43.681,52.475c-3.159,0-6.634,1.326-9.533,3.639c-2.667,2.127-4.607,4.867-5.464,7.713   c-0.908,3.023-0.506,5.82,1.134,7.875c1.483,1.859,3.837,2.883,6.627,2.883c3.161,0,6.636-1.326,9.534-3.639   c2.666-2.127,4.605-4.865,5.461-7.713c0.908-3.021,0.506-5.818-1.134-7.875C48.822,53.498,46.47,52.475,43.681,52.475z    M31.27,64.604c0.699-2.326,2.319-4.592,4.562-6.379c2.43-1.939,5.291-3.051,7.85-3.051c0.729,0,1.409,0.094,2.025,0.271   c-0.979,0.449-2.085,1.109-3.429,2.453c-1.87,1.871-2.425,3.285-2.914,4.533c-0.448,1.139-0.834,2.123-2.295,3.582   c-1.461,1.461-2.444,1.85-3.584,2.295c-0.622,0.246-1.288,0.512-2.031,0.947C30.813,67.99,30.737,66.377,31.27,64.604z    M48.854,62.457c-0.698,2.324-2.317,4.59-4.559,6.377c-2.429,1.939-5.29,3.051-7.851,3.051c-1.084,0-2.056-0.213-2.875-0.602   c0.307-0.141,0.612-0.266,0.929-0.391c1.248-0.49,2.662-1.047,4.532-2.916c1.87-1.871,2.426-3.285,2.916-4.531   c0.445-1.141,0.832-2.123,2.294-3.586c1.46-1.459,2.443-1.846,3.581-2.291c0.188-0.072,0.38-0.15,0.575-0.23   C49.284,58.66,49.455,60.457,48.854,62.457z"/><rect x="25.506" y="39.436" width="13.694" height="2.699"/><rect x="40.923" y="39.436" width="2.707" height="2.699"/></g><text x="0" y="115" fill="#000000" font-size="5px" font-weight="bold" font-family="'Helvetica Neue', Helvetica, Arial-Unicode, Arial, Sans-serif">Created by suhyeon Jung</text><text x="0" y="120" fill="#000000" font-size="5px" font-weight="bold" font-family="'Helvetica Neue', Helvetica, Arial-Unicode, Arial, Sans-serif">from the Noun Project</text></svg>