<svg xmlns="http://www.w3.org/2000/svg" data-name="Layer 1" viewBox="0 0 128 160" x="0px" y="0px"><title>Artboard 18</title><path d="M102.57,14.45a17.19,17.19,0,0,0,1.37-3.19,18.17,18.17,0,0,0,.58-2.61c.05-.44.13-.88.16-1.32a10.17,10.17,0,0,0,0-1.32,7,7,0,0,0-2.56-4.9,2.76,2.76,0,0,0-3.74.25l-.23.24a8.47,8.47,0,0,0-1.48,2.17A8.35,8.35,0,0,0,96,5.7c-.21,1.24-.25,2.45-.39,3.67q-.14,1.12-.3,2.25c-8.16-1-17.54,7.13-24.86,14.44a21.78,21.78,0,0,0-6.22,12.47,10.86,10.86,0,0,1-6.64,8.31A22,22,0,0,0,45.93,58.45a10.85,10.85,0,0,1-8.31,6.64,21.79,21.79,0,0,0-12.47,6.22c-5.8,5.8-21.21,21.21-11.31,31.11,4.43,4.43,13,6.42,21.27,6.42a48.61,48.61,0,0,0,7.59-.59c-1.48,7.16-.93,14.38,5.95,17.49a18.67,18.67,0,0,0,7.63,1.41c11.88,0,28.06-7.53,32.07-16.37a21.85,21.85,0,0,0,1.82-6.61A15.29,15.29,0,0,1,97,92.76a22,22,0,0,0,9.93-21.94A15.29,15.29,0,0,1,111,58.2a21.84,21.84,0,0,0,3.77-5.73c2.35-5.2,1.81-13.47-1.45-22.12C110.62,23.25,106.74,17.56,102.57,14.45ZM73.26,114.81a2,2,0,0,1-1.41-3.74A10,10,0,1,0,59,105.24a2,2,0,1,1-3.74,1.41,14,14,0,1,1,18,8.16ZM79.38,87a14,14,0,0,1-7-18.53A2,2,0,0,1,76,70.08a10,10,0,1,0,18.22,8.25A9.9,9.9,0,0,0,94.91,72a2,2,0,1,1,3.9-.89A14,14,0,0,1,79.38,87ZM94.69,57.41A14,14,0,0,1,89.76,30.3,2,2,0,0,1,91.17,34a10,10,0,1,0,7.06,18.71,2,2,0,0,1,1.41,3.74A14,14,0,0,1,94.69,57.41Zm-24.75.9a22,22,0,0,0-6.77,15,11.56,11.56,0,0,1-.58,3.13A10,10,0,1,1,70.28,58C70.17,58.07,70.07,58.2,69.95,58.31ZM50.52,88.8a22.13,22.13,0,0,0-2.25,3.85h0l-.65,1.45a10,10,0,1,1,2.9-5.29ZM16.67,99.6C11.85,94.77,15.44,86.69,28,74.14a17.82,17.82,0,0,1,10.2-5.09,14.87,14.87,0,0,0,11.43-9,18,18,0,0,1,9.5-9.5,14.88,14.88,0,0,0,9-11.43,17.82,17.82,0,0,1,5.09-10.2,92,92,0,0,1,8.47-7.65,83.7,83.7,0,0,0-7.05,13.1,21.79,21.79,0,0,0-1.42,13.86,10.33,10.33,0,0,1-.69,6.42A14,14,0,1,0,60.69,79.95a10,10,0,0,1-2.94,2.48,22.09,22.09,0,0,0-3.22,2.15,14,14,0,1,0-9.41,15.57c-.46,1.23-.9,2.52-1.3,3.84C33.56,106.16,21.3,104.23,16.67,99.6Z"/><text x="0" y="143" fill="#000000" font-size="5px" font-weight="bold" font-family="'Helvetica Neue', Helvetica, Arial-Unicode, Arial, Sans-serif">Created by Juraj Sedlák</text><text x="0" y="148" fill="#000000" font-size="5px" font-weight="bold" font-family="'Helvetica Neue', Helvetica, Arial-Unicode, Arial, Sans-serif">from the Noun Project</text></svg>