<svg xmlns:x="http://ns.adobe.com/Extensibility/1.0/" xmlns:i="http://ns.adobe.com/AdobeIllustrator/10.0/" xmlns:graph="http://ns.adobe.com/Graphs/1.0/" xmlns="http://www.w3.org/2000/svg" xmlns:xlink="http://www.w3.org/1999/xlink" version="1.1" x="0px" y="0px" viewBox="0 0 64 80" enable-background="new 0 0 64 64" xml:space="preserve"><metadata><sfw xmlns="http://ns.adobe.com/SaveForWeb/1.0/"><slices/><sliceSourceBounds height="16384" width="16389" x="-8165" y="-8160" bottomLeftOrigin="true"/></sfw></metadata><g><g><path d="M57.414,28.586l-4-4C53.039,24.211,52.53,24,52,24v-4c0-7.72-7.178-14-16-14s-16,6.28-16,14v0.109    C13.133,20.784,8,24.88,8,30v26c0,1.104,0.896,2,2,2h24c1.104,0,2-0.896,2-2V30c0-5.12-5.133-9.216-12-9.891V20    c0-5.514,5.383-10,12-10c6.617,0,12,4.486,12,10v4c-0.53,0-1.039,0.211-1.414,0.586l-4,4C42.211,28.961,42,29.47,42,30v12    c0,1.104,0.896,2,2,2h12c1.104,0,2-0.896,2-2V30C58,29.47,57.789,28.961,57.414,28.586z M32,30v24H12V30    c0-2.843,3.499-5.3,8-5.874V28c0,1.104,0.896,2,2,2s2-0.896,2-2v-3.874C28.501,24.7,32,27.157,32,30z M54,40h-8v-9.171l2-2V32    c0,1.104,0.896,2,2,2s2-0.896,2-2v-3.172l2,2V40z"/><circle cx="16" cy="50" r="2"/><circle cx="22" cy="50" r="2"/><circle cx="28" cy="50" r="2"/><circle cx="18" cy="44" r="2"/><circle cx="26" cy="44" r="2"/></g></g><text x="0" y="79" fill="#000000" font-size="5px" font-weight="bold" font-family="'Helvetica Neue', Helvetica, Arial-Unicode, Arial, Sans-serif">Created by Ralf Schmitzer</text><text x="0" y="84" fill="#000000" font-size="5px" font-weight="bold" font-family="'Helvetica Neue', Helvetica, Arial-Unicode, Arial, Sans-serif">from the Noun Project</text></svg>