
<svg xmlns="http://www.w3.org/2000/svg" version="1.1" xmlns:xlink="http://www.w3.org/1999/xlink" preserveAspectRatio="none" x="0px" y="0px" width="1200px" height="900px" viewBox="0 0 1200 900">
<defs>
<g id="Person_0_Layer1_0_FILL">
<path fill="#FF0000" stroke="none" d="
M 166.85 131.75
Q 165.15 119.8 162.05 111.8 161.05 109.2 160.6 107.85 159.85 105.6 159.75 103.8 159.6 101.8 159.35 101.05 158.9 99.6 157.8 99.4 157.7 99.4 157.6 99.4 157.5 99.05 157.45 98.7 157.1 96.55 157.05 96.35 156.8 95 156.3 94.15 155.65 93.1 154.55 92.6 153.3 92.05 152.35 92.6 151.25 93.2 151.1 94.65 150.4 94.35 149.25 94.1 142.15 92.5 138.8 92.1 136.55 91.8 134.5 91.75 134.6 91.5 134.7 91.3 134.8 91.1 135.4 90.45 135.9 89.95 136 89.5 136.1 88.9 135.75 88.15 135.2 87.3 135 86.85 135 86.8 134.95 86.75 135.4 86.65 135.8 86.45 135.35 85.6 134.7 84.6
L 134.7 83.1
Q 134.6 81.8 133.5 79.35 133.2 78.6 132.95 77.95 136.4 76.7 138.5 75 140.2 73.6 142.1 71.05 144.2 68.1 145.25 66.7 146.05 65.65 147.85 63.45 149.6 61.4 150.45 60.2 154.1 55 155.45 48.3 156.75 41.9 155.8 35.3 155.4 32.5 154.2 27.85 153.25 23.65 152.35 21.85 151.25 19.55 148.2 15.8 145.4 12.15 143.7 10.85 142.75 10.1 141.25 9.15 139.55 8.15 138.65 7.6 136.9 6.5 136.05 5.95 134.45 5 133.3 4.45 129.2 2.5 124.25 2.75 123.7 2.75 123.15 2.85 123.55 1.95 124 1.1 123.9 0.35 123.05 0.1 122.3 -0.15 121.6 0.2 120.7 0.8 120 2.65 119.85 3.05 119.7 3.4 117.4 4 115.15 5.05 107.4 8.95 101.7 17.8 98.35 23.2 98.4 27.4 98.4 29.3 98.2 29.95 98.05 30.5 97.55 31.1 97.25 31.45 96.65 32.15 95.3 33.85 94.75 36.85 94.05 40.4 94.4 43.6 94.6 45.9 95.95 50.95 98.15 59.15 100.85 63.4 103.65 67.75 108.95 72.1 115.95 77.95 121.8 79.05 123.45 79.35 125.25 79.35 125.85 80.45 126.5 81.4 126.45 84.3 126.65 86 127.05 89.4 128.45 91.75 128.55 91.95 128.7 92.15 128.5 92.15 128.3 92.2 127.85 92.3 123.6 93.3 120.8 94 118.85 94.1 118.05 94.1 117.4 94.1 117.05 94 116.7 94 116.5 94 116.3 94.1 116.05 94.1 115.8 94.1 114.05 94.15 112.9 94.7 111.85 95.25 111.35 96.3 110.45 96.15 109.75 96.7 108.75 97.5 108.75 99.9
L 108.75 102.35
Q 106.7 103.75 106.25 104.15 104.85 105.4 104.5 107.25 104.1 109.25 105.4 110.3 106.75 111.2 108.65 110.4
L 108.55 118.1
Q 105.35 123.8 100.35 134.05
L 96.8 141.55
Q 93 149.45 91 154.45 90.05 156.75 89.65 157.45 88.8 159.1 87.8 160.15 86.3 161.75 82.55 163.2
L 62.2 171.8
Q 50.95 176.5 45.95 178.45 38.2 181.45 31.75 183.5 31.5 183.05 31.15 182.65 30.6 181.95 29.5 181.4 28.2 180.85 27.55 180.5 27.35 180.4 24.7 178.75 23 177.65 21.65 177.45 18.55 176.9 14.5 180.15 13.45 180.95 11.35 182.6 9.45 183.95 7.8 184.25 7.05 184.45 5.6 184.5 4.05 184.6 3.35 184.75 2.2 184.95 1.3 185.6 0.3 186.3 0.05 187.3 -0.25 188.9 1.3 190.3 2.6 191.45 4.6 191.95 2.95 193.35 2.65 195.75 2.35 198.05 3.35 200.15 5.15 203.7 9.85 205.8 15.2 208.25 20.5 207.2 23.2 206.7 25.5 205.2 27.9 203.65 29.3 201.4 31.05 198.7 29.95 196.55 29.25 195.3 27.2 194.4 24.95 193.4 21.9 192.8 20.35 192.5 16.4 191.95
L 25.25 189.8
Q 25.65 190.4 26.45 190.85 28.05 191.85 30.1 191.75 33.15 191.7 38.25 189.85 43.95 187.75 46.35 187.4 47.05 187.3 49.85 187.15 52.05 187 53.3 186.7 55.55 186.2 61.6 182.7 66.6 179.85 69.9 180.2 70.75 180.3 72.25 180.65 73.8 181.05 74.55 181.1 77.75 181.25 81.1 178.65 82.4 177.6 86.45 173.4 88.1 171.75 89.45 171.3 87.25 173.5 86.05 175.55 83.45 180.25 83.35 187.1 83.25 192.45 84.45 196.1 86.55 202.15 93.05 207.1 95.05 208.65 98.15 210.55 97.5 211.1 97.1 211.35 96.9 211.5 95.05 212.7 93.8 213.5 93.05 214.15 92.2 214.95 91.2 216.3 90.65 217.05 89.55 218.55 87.6 221 83.3 224.55
L 73.3 232.8
Q 70.35 235.15 69.25 236.85 68.95 237.35 68.35 238.35 67.8 239.3 67.3 239.8 66.55 240.6 64.05 241.9 61.7 243.15 60.75 244.6 60.15 245.6 60.1 246.65 60.1 246.75 60.1 246.85 59.65 247.65 59.45 249 58.7 253.7 59.4 257.65 59.65 259.3 60.3 261.6 60.6 262.95 61.3 265.55 61.85 268.45 62.5 275.6 63.25 283.55 63.3 288.7 63.35 291.8 63.15 299.45 62.9 306.25 63.1 310.15 63.4 318.9 65.75 325.5 65.3 325.7 64.8 325.9 62.6 326.9 57.3 329.55 49 333.8 32.3 342.2 28.5 344.15 27.2 345.85 26.2 347.2 26.05 348.85 25.95 350.65 27 351.8 27.9 352.85 29.65 353.15 30.85 353.35 32.95 353.2
L 63.9 351.15
Q 71.3 350.65 75.15 350.1 81.35 349.15 85.9 347.2 87.95 346.35 89.15 344.85 90.5 343.1 89.65 341.55 88.95 340.45 86.45 339.7 75.25 336.65 63.45 334.45
L 68.85 331.8
Q 71.45 335.75 74.55 336.55 75.7 336.85 76.8 336.7 78 336.45 78.7 335.75 79.85 334.55 79.55 332 79.15 328.05 79.15 327.8 79.2 327.15 79.7 325.5 80.1 324.05 80.05 323.2 80.05 322 79.4 320.55 78.5 318.85 78.1 318 77.3 316.25 76.8 313.5 76.3 310.35 76 308.8 75.75 307.45 74.85 304 74.1 301 73.85 299.2 73.55 297.2 73.35 294.15 73.05 289.5 73 289.05 72.6 283.85 70.6 274
L 66.25 252.7
Q 66.05 251.7 66 250.85 67.75 251.3 69.6 251.55 70.5 250.2 72.25 249.05 72.85 248.6 75.5 247.1 79.4 244.95 85.15 240.65 88.3 238.4 98.4 230.8 104.3 226.3 106.95 223.6 108.7 221.9 111.4 218.6 111.85 218.85 112.3 219.15 116.5 221.65 119.8 222.9 124.05 224.5 128.1 224.45 132.65 224.35 136 222.2 138.55 220.35 139.8 219.4 142 217.75 143.85 217.5 144.35 217.45 145.6 217.45 146.7 217.45 147.35 217.3 148.75 216.95 151.1 215 151.35 214.8 151.6 214.65 151.5 214.8 151.4 215 149.8 218.15 145.05 224.45
L 130.95 242.8
Q 128.35 246.05 126.9 248.55 126.2 248.35 125.45 248.5 124.35 248.75 123.85 249.6 123.45 250.3 123.5 251.4 123.55 252 123.65 253.25 123.7 254 123.5 255.6 123.35 257.1 123.4 257.9 123.45 258.45 123.6 259.15 123.45 259.6 123.15 260.45 122.85 261.5 122.75 262.25 122.55 264.5 123.8 265.45 124.35 265.95 125.1 266.1 125.4 268.4 125.45 271.2 125.65 275.4 125.55 283.9 125.6 290.8 126.8 304.5 127.3 308.85 127.3 312.3 127.3 313.7 126.95 318.25 126.55 322.5 126 324.25 125.95 324.4 125.55 325.55 125.3 326.25 125.25 326.8 125.15 326.9 125 327.05 123.5 328.55 122.05 330.85 121.4 331.9 119.65 335 116.75 339.95 114.2 343.1 110.85 347.2 107.1 349.5 105.95 350.25 103.6 351.6 101.6 352.9 100.55 354.25 99.35 356 99.7 358.2 100.05 360.45 101.9 361.05 102.9 361.35 104.6 361.05 106.75 360.6 107.3 360.6 109.1 360.6 111.35 362.15 114.75 364.45 115.15 364.65 116.95 365.45 119.45 365.55 121.1 365.65 123.85 365.35
L 155.65 362.55
Q 156.9 362.4 157.5 362.25 158.5 361.95 159.1 361.3 160.55 359.8 159.35 356.35 157.4 350.55 153.2 344.1 150.75 340.25 145.1 332.9 143.7 331.1 142.9 330.35 141.95 329.45 140.95 329.1 140.65 327.95 139.65 325.6 137.25 319.85 136.35 312.4 135.65 306.85 135.65 298.6 135.8 289.45 135.75 284.9 135.65 276.95 134.7 271.2 134.2 268.4 133.55 267.15 132.3 265.15 131.75 264.05 131.05 262.55 130.8 259.75 130.85 259.65 130.85 259.6 132 256.45 134.45 252.8 134.95 252.1 139.1 246.55 147.15 236.15 153.55 225.4 159.65 215.05 162.25 207.75 163.3 204.85 164.9 199.2 165.9 195.45 166.2 193.75 166.75 190.7 166.6 188.25 167.15 187.7 167.65 187.1 168.3 186.45 168.85 185.85 169.65 188.45 170.4 192.05
L 172.45 200.4
Q 172.85 202.25 173.85 205.75 174.2 206.9 174.6 207.75
L 161.7 224.25
Q 158.7 228.05 157.45 230.1 156.5 231.7 154.7 235 153.05 237.85 151.4 239.4 150.65 240.1 149.05 241.3 147.7 242.45 147 243.4 146.1 244.65 146 246.15 145.9 247.8 146.95 248.75 148.4 249.95 150.6 249.1 152.4 248.45 154.2 246.7 162.85 239.05 167 235.05 174.15 228.15 178.2 222 184 213.3 182.05 206.6 181.75 205.6 181.2 204.8 181.1 202.8 180.3 199.55 176.15 183.9 174.2 176 170.85 162.5 169.35 152.3 167.8 138.55 166.85 131.75
M 162.95 176.15
Q 163.25 177.5 163.3 177.75 163.45 178.65 163.25 179.35 163.05 180.35 162.1 181.3 162.05 181.35 161.15 182.15 159.7 177.3 156.35 172.3 153.3 167.8 146.75 160.8 143.6 157.55 141.8 156.45 136.25 153.15 127.65 155.65 125.5 156.25 120.7 158.15 120.4 158.25 120.1 158.4 120 141.55 119.9 120.45 120.1 118.95 120.05 117.65 119.95 116.6 119.85 115.7 119.8 110.6 119.8 105.3 119.95 104.75 120.15 104.3 120.9 102.55 121.05 101.9 122.3 101.35 123.5 101.05 126.05 100.4 130.65 100.3 141 100.1 152 101.4 152.25 101.2 152.5 100.95 155.5 110.6 156.9 123.4 157.35 127.45 158.8 149.15 159.75 161.95 161.1 168.9 162.05 173.15 162.95 176.15
M 128.7 12.9
Q 130.3 14.35 132.55 17.3 136.15 22 138.25 25.45 141.05 30.1 142.4 34.35 142.95 36.1 143.3 37.8 143.25 37.8 143.2 37.8 137.85 37.25 124.65 38.5 122.4 38.7 120.35 38.85
L 120.15 24.15
Q 120.05 16.5 120.6 12.25 120.7 11.35 120.85 10.5 122.35 10.15 123.8 10.4 126.3 10.75 128.7 12.9
M 143.55 39.8
Q 143.9 43.1 143.45 46.4 142.55 52.85 138.75 57.3 134.75 62.05 128.4 63.3 125.8 63.8 123.45 63.55 122.55 60.95 122 59
L 122.5 57.55
Q 122.1 56.9 121.4 56.65 120.35 51.4 120.35 41.6
L 120.35 41.5
Q 122.5 41.5 124.7 41.45 131.35 41.25 143.55 39.8
M 116.75 13
Q 116.3 16.05 116.3 21.2 116.3 21.45 116.1 39 112.55 39.05 109.7 38.8 109.65 37.6 109.65 36.25 109.55 28.35 110.4 24 111.65 17.35 115.5 13.55 116.15 12.9 116.9 12.4 116.8 12.7 116.75 13
M 110.2 45.65
Q 109.95 43.6 109.8 40.65 112.8 41.1 116.05 41.3 116 42.7 116 44.15 115.9 49.6 116.3 53 116.55 54.65 117.05 57 116.75 57.05 116.65 57.05 115.5 57.25 114.65 56.85 113.7 56.45 112.7 54.55 110.85 50.8 110.2 45.65
M 116.95 61.15
Q 117.4 60.85 117.9 60.65
L 117.9 60.7
Q 118.1 61.35 118.3 62 117.6 61.6 116.95 61.15
M 126.5 71.5
L 126.45 71.5
Q 126.35 71.35 126.3 71.15
L 126.95 71.15
Q 126.8 71.35 126.5 71.5
M 108.3 131.75
Q 107.9 133.05 107.25 135.55 106.6 137.3 105.2 139.15 104.35 140.25 102.45 142.3 102.3 142.3 102.3 142 102.3 141.75 102.4 141.55 102.65 141.2 104 139.65 104.95 138.5 105.35 137.65 105.7 136.9 105.95 135.85 106.2 134.6 106.3 134 106.7 132.55 108.05 129.95
L 108.4 129.3 108.35 131.6
Q 108.35 131.65 108.3 131.75
M 108.55 155.6
Q 108.7 158.45 109.1 161.4 108.45 161.5 107.7 161.6 103.9 162.2 101.7 162.95 100.7 163.3 99.75 163.8 104.35 156.85 108.3 149.5 108.35 153.3 108.55 155.6
M 107.9 171.6
Q 109.15 170.45 110.65 169.55 111.65 174.1 113.6 180.55
L 113.55 193.25
Q 113.35 193.2 113.2 193.1 112.35 192.6 111.9 191.4 111.8 191.2 111.3 189.2 111 187.95 110.3 187.1 109.45 186.15 108.4 186.3 107.45 186.5 106.55 187.85 105.25 190.15 105.3 192.9 105.35 195.7 106.75 197.9 108.1 200 109.9 200.6 110.95 201 113.2 201
L 114.6 201.05
Q 115.2 201.9 116.2 202.3 117.5 202.9 118.6 202.3 118.95 201.7 119.2 201.1
L 146 201.35
Q 147.05 201.35 147.9 201.35 147.15 202.4 146.2 203.5 142.8 207.8 139.15 209.45 136.95 210.4 134.6 210.25 132.1 210.05 130.4 208.65 127.35 206.1 126.5 207.5 126 208.25 126.7 209.6 128.15 213 130.65 216.2 126.9 216.95 123.1 215.95 119.3 214.95 116.4 212.4 117.4 211.9 117.35 210.55 117.3 209.25 116.4 208.45 115.9 208 115.3 207.7 115.1 207.55 114.95 207.4 114.2 206.75 113.1 206.55 112.05 206.3 111.1 206.6 111.3 206.35 112.85 204.9 113.95 203.85 113.95 202.95 113.9 202.2 113.3 201.7 112.8 201.15 112.05 201 111.05 200.8 109.25 201.5 106.95 202.45 104.2 204.9 102.2 202 101.9 196 101.5 187.6 102.35 182.75 103.65 175.5 107.9 171.6
M 91.6 193.8
Q 90.25 190.6 90.5 186.05 90.75 182.85 91.8 180.15 92.95 177.4 95.2 175.3 97.45 173.2 100.3 172.25 97.65 175.2 96.9 177.25 96.1 179.5 96.4 183.8
L 97 199.25
Q 93.3 197.85 91.6 193.8
M 121.15 175.65
Q 120.7 175.65 120.35 175.95 120.25 176.05 120.2 176.15 120.2 171.65 120.15 166.8 122.05 166.65 124.1 166.8 127.7 167.05 132.7 168.2 135.55 168.9 141.15 170.3 144.8 171.15 146.2 172.25 148.15 173.9 149.35 178.45 150.9 184.65 151.25 187.8 151.45 189.75 151.4 191.5 150.35 192.15 149.35 192.5 148.05 193 146.35 193.15 145.45 193.25 143.2 193.3
L 120.3 193.5
Q 120.25 193 120.25 192.5 120.25 192 120.25 191.5 121 191.55 122.5 191.45 124.3 190.05 124.1 186.7 124 180.7 121.15 175.65
M 138.45 162.4
Q 138.75 162.55 139.15 163 138.35 163.15 136.95 162.85 135.1 162.4 134.05 162 135.4 162.05 137.95 162.35
L 138.45 162.4
M 15.65 200.75
L 14.1 200.55
Q 13.1 200.35 11.75 199.6 10 198.6 9.55 198.4 16 197.95 22.45 199.75 21.15 200.5 19.15 200.7 18.1 200.8 15.65 200.75
M 49.8 341.8
Q 50.25 341.35 50.5 341.4 50.75 341.4 51.15 341.9 51.35 342.05 52.05 342.15
L 55.05 342.55
Q 56.5 342.75 57.1 343.1 56.35 343.2 54.65 343.55 53.05 343.9 52.15 344 50.75 344.1 47.55 343.7 48.75 343.1 49.8 341.8
M 127.55 336.8
Q 128.35 337.85 129.55 338.25 130.85 338.7 131.9 338.1 133 337.4 133.7 336.4 133.75 336.8 133.85 337.25 134.5 339.95 136.95 342.5 138.5 344.1 141.8 346.6 130.6 345.4 119.8 347.4 122.9 341.3 126.9 335.55 127.2 336.35 127.55 336.8
M 137.1 353.9
Q 136.35 354.65 134.5 354.65 130.95 354.8 123.9 354.9 126.95 354.75 129.5 354.15
L 132.95 353.55
Q 134.55 353.45 137.1 353.9 Z"/>
</g>
</defs>

<g transform="matrix( 1, 0, 0, 1, 427.4,495.7) ">
<g transform="matrix( 1, 0, 0, 1, 0,0) ">
<use xlink:href="#Person_0_Layer1_0_FILL"/>
</g>
</g>
</svg>
