<svg id="Lag_1" data-name="Lag 1" xmlns="http://www.w3.org/2000/svg" viewBox="0 0 260.35 658"><defs><style>.cls-1{fill:#a52d2d;}.cls-2{fill:#f2ae30;}.cls-3{fill:#d93636;}.cls-4{fill:#285059;}.cls-5{fill:#d97b29;}.cls-6{fill:none;stroke:#d93636;stroke-miterlimit:10;stroke-width:6px;}.cls-7{fill:#00a99d;}.cls-8{fill:#30bf97;}.cls-9{fill:#ce4141;}</style></defs><title>man0</title><g id="Man"><g id="L_Arm"><rect class="cls-1" x="343.69" y="287.83" width="143.14" height="18.12" rx="9.06" ry="9.06" transform="matrix(0.26, -0.97, 0.97, 0.26, -287.03, 564.33)"/><rect class="cls-1" x="310.95" y="311.55" width="114.51" height="18.12" rx="9.06" ry="9.06" transform="translate(50.01 750.76) rotate(-129.97)"/></g><g id="R_arm"><rect class="cls-1" x="464.89" y="281.42" width="143.14" height="18.12" rx="9.06" ry="9.06" transform="translate(163.53 839.17) rotate(-112.42)"/><rect class="cls-1" x="489.11" y="376.16" width="100.38" height="18.12" rx="9.06" ry="9.06" transform="translate(-374.39 598.51) rotate(-59.7)"/></g><g id="Sodavand"><rect class="cls-2" x="24.76" y="157.33" width="6.04" height="36.24"/><rect class="cls-2" x="340.1" y="197.51" width="6.04" height="22.35" transform="translate(166.39 529.87) rotate(-140.54)"/><polygon class="cls-3" points="44.09 264.23 10.87 264.23 4.83 186.32 50.13 186.32 44.09 264.23"/><path class="cls-4" d="M8.46,183.3H47.11a6,6,0,0,1,6,6v0a0,0,0,0,1,0,0H2.42a0,0,0,0,1,0,0v0A6,6,0,0,1,8.46,183.3Z"/><rect class="cls-2" y="208.06" width="21.74" height="8.46" rx="4.23" ry="4.23"/><rect class="cls-2" x="3.62" y="218.33" width="21.74" height="8.46" rx="4.23" ry="4.23"/><rect class="cls-2" x="3.62" y="229.2" width="21.74" height="8.46" rx="4.23" ry="4.23"/><rect class="cls-2" x="3.62" y="240.07" width="21.74" height="8.46" rx="4.23" ry="4.23"/><rect class="cls-2" x="349.82" y="269.59" width="13.92" height="10.87" rx="5" ry="5" transform="translate(-380.07 76.03) rotate(-19.39)"/></g><g id="Sko"><path class="cls-4" d="M423.75,660.44V684H398.38c-13,0-23.55,14.17-23.55,27.18H447.3V660.44Z" transform="translate(-309 -58)"/><rect class="cls-2" x="108.71" y="624.18" width="4.23" height="10.87" rx="2.11" ry="2.11"/><rect class="cls-2" x="102.67" y="624.18" width="4.23" height="10.87" rx="2.11" ry="2.11"/><rect class="cls-2" x="96.63" y="624.18" width="4.23" height="10.87" rx="2.11" ry="2.11"/><circle class="cls-2" cx="125.32" cy="634.75" r="6.95"/><path class="cls-3" d="M397.78,684c-12.73.43-22.95,14.35-22.95,27.16h22.95Z" transform="translate(-309 -58)"/><rect class="cls-2" x="64.02" y="651.36" width="76.7" height="6.64"/></g><g id="SKo-2" data-name="SKo"><path class="cls-4" d="M498.64,660.44V684H473.27c-13,0-23.55,14.17-23.55,27.18h72.47V660.44Z" transform="translate(-309 -58)"/><rect class="cls-2" x="183.6" y="624.18" width="4.23" height="10.87" rx="2.11" ry="2.11"/><rect class="cls-2" x="177.56" y="624.18" width="4.23" height="10.87" rx="2.11" ry="2.11"/><rect class="cls-2" x="171.52" y="624.18" width="4.23" height="10.87" rx="2.11" ry="2.11"/><circle class="cls-2" cx="200.21" cy="634.75" r="6.95"/><path class="cls-3" d="M472.67,684c-12.73.43-22.95,14.35-22.95,27.16h22.95Z" transform="translate(-309 -58)"/><rect class="cls-2" x="138.91" y="651.36" width="76.7" height="6.64"/></g><rect id="Hals" class="cls-2" x="150.99" y="141.63" width="23.55" height="23.55"/><g id="Hoved"><circle class="cls-5" cx="197.49" cy="84.25" r="12.68"/><circle class="cls-5" cx="126.22" cy="84.25" r="12.68"/><rect class="cls-2" x="126.22" y="23.25" width="71.27" height="124.41" rx="35.63" ry="35.63"/><path class="cls-5" d="M469.65,168.22a13.89,13.89,0,1,1,0-27.78Z" transform="translate(-309 -58)"/><path class="cls-6" d="M487.16,174a17.21,17.21,0,0,1-34.42,0" transform="translate(-309 -58)"/><rect class="cls-4" x="171.52" y="65.53" width="6.04" height="12.68" rx="3.02" ry="3.02"/><rect class="cls-4" x="144.34" y="65.53" width="6.04" height="12.68" rx="3.02" ry="3.02"/><path class="cls-7" d="M493.76,89.6a26.58,26.58,0,0,0,12.73,40.19V116.88A35.53,35.53,0,0,0,493.76,89.6Z" transform="translate(-309 -58)"/><path class="cls-7" d="M493.76,89.6a26.58,26.58,0,0,0,12.73,40.19V116.88A35.53,35.53,0,0,0,493.76,89.6Z" transform="translate(-309 -58)"/><path class="cls-4" d="M447.61,121.11a53.45,53.45,0,0,0,48-29.87,35.49,35.49,0,0,0-24.72-10h0a35.64,35.64,0,0,0-35.64,35.63v2.79A53.8,53.8,0,0,0,447.61,121.11Z" transform="translate(-309 -58)"/><path class="cls-8" d="M438.23,102.58a33.6,33.6,0,0,0-1.29,3.38,52.5,52.5,0,0,0,41.73-23.84,37,37,0,0,0-4.62-.71A52.49,52.49,0,0,1,438.23,102.58Z" transform="translate(-309 -58)"/><path class="cls-8" d="M443.68,115.07a53.49,53.49,0,0,1-8.36-.66c-.05.8-.09,1.61-.09,2.42a52.6,52.6,0,0,0,58.29-27.42A36.22,36.22,0,0,0,490.2,87,52.55,52.55,0,0,1,443.68,115.07Z" transform="translate(-309 -58)"/><path class="cls-8" d="M437.64,109l-1.53,0c-.21.92-.38,1.85-.52,2.8q2.51.24,5.07.24a52.52,52.52,0,0,0,46-27.1,35.87,35.87,0,0,0-3.82-1.62A52.52,52.52,0,0,1,437.64,109Z" transform="translate(-309 -58)"/><path class="cls-8" d="M445.71,91.66a35.27,35.27,0,0,0-5.48,7,52.58,52.58,0,0,0,28.5-17.36,35.42,35.42,0,0,0-9.75,2A52.8,52.8,0,0,1,445.71,91.66Z" transform="translate(-309 -58)"/><path class="cls-4" d="M492.6,101.18a26.43,26.43,0,0,1,2.23-10.64c-.35-.32-.7-.64-1.07-.94a26.58,26.58,0,0,0,12.73,40.19v-5.25A26.59,26.59,0,0,1,492.6,101.18Z" transform="translate(-309 -58)"/><path class="cls-8" d="M494.41,99.37a26.43,26.43,0,0,1,1.25-8.05l-.83-.78a26.56,26.56,0,0,0,11.66,34v-2.9A26.54,26.54,0,0,1,494.41,99.37Z" transform="translate(-309 -58)"/><path class="cls-4" d="M496.22,97.56a26.56,26.56,0,0,1,.51-5.16c-.35-.37-.71-.73-1.07-1.08a26.56,26.56,0,0,0,10.83,30.32v-3.1A26.53,26.53,0,0,1,496.22,97.56Z" transform="translate(-309 -58)"/><path class="cls-8" d="M506.44,115.13A26.5,26.5,0,0,1,498,95.75c0-.61,0-1.21.06-1.81-.44-.53-.9-1-1.37-1.54a26.53,26.53,0,0,0,9.76,26.14v-1.66C506.49,116.3,506.47,115.71,506.44,115.13Z" transform="translate(-309 -58)"/><path class="cls-4" d="M498.1,93.94c0,.6-.06,1.2-.06,1.81a26.5,26.5,0,0,0,8.4,19.38,36.44,36.44,0,0,0-.45-4.2,26.46,26.46,0,0,1-6-14.59Q499.08,95.1,498.1,93.94Z" transform="translate(-309 -58)"/><path class="cls-8" d="M506,110.93a35.3,35.3,0,0,0-6-14.59A26.46,26.46,0,0,0,506,110.93Z" transform="translate(-309 -58)"/><path class="cls-8" d="M490.79,103a26.39,26.39,0,0,1,3.41-13l-.44-.38a26.58,26.58,0,0,0,12.73,40.19v-2.54A26.59,26.59,0,0,1,490.79,103Z" transform="translate(-309 -58)"/><circle class="cls-2" cx="161.86" cy="5.74" r="5.74"/><path class="cls-3" d="M159,9.66h6.75a29.47,29.47,0,0,1,29.47,29.47v0a7.37,7.37,0,0,1-7.37,7.37h-51a7.37,7.37,0,0,1-7.37-7.37v0A29.47,29.47,0,0,1,159,9.66Z"/><rect class="cls-9" x="124.11" y="36.24" width="76.1" height="13.89" rx="6.95" ry="6.95"/><rect class="cls-3" x="178.16" y="36.24" width="2.42" height="13.89"/><rect class="cls-3" x="173.33" y="36.24" width="2.42" height="13.89"/><path class="cls-3" d="M433.11,99.67v3a5.47,5.47,0,0,0,3.32,5v-13A5.46,5.46,0,0,0,433.11,99.67Z" transform="translate(-309 -58)"/><rect class="cls-3" x="129.85" y="36.24" width="2.42" height="13.89"/><rect class="cls-3" x="183" y="36.24" width="2.42" height="13.89"/><rect class="cls-3" x="168.5" y="36.24" width="2.42" height="13.89"/><rect class="cls-3" x="163.67" y="36.24" width="2.42" height="13.89"/><rect class="cls-3" x="134.68" y="36.24" width="2.42" height="13.89"/><rect class="cls-3" x="139.51" y="36.24" width="2.42" height="13.89"/><path class="cls-3" d="M503.77,94.24h-2.11v13.89h2.11l.3,0V94.25Z" transform="translate(-309 -58)"/><rect class="cls-3" x="144.34" y="36.24" width="2.42" height="13.89"/><rect class="cls-3" x="154.01" y="36.24" width="2.42" height="13.89"/><rect class="cls-3" x="187.83" y="36.24" width="2.42" height="13.89"/><rect class="cls-3" x="158.84" y="36.24" width="2.42" height="13.89"/><path class="cls-3" d="M506.49,95v12.41a5.46,5.46,0,0,0,2.72-4.7v-3A5.43,5.43,0,0,0,506.49,95Z" transform="translate(-309 -58)"/><rect class="cls-3" x="149.17" y="36.24" width="2.42" height="13.89"/><path class="cls-2" d="M438.55,94.24a5.35,5.35,0,0,0-2.12.43v13a5.53,5.53,0,0,0,2.12.43h.3V94.24Z" transform="translate(-309 -58)"/><rect class="cls-2" x="132.26" y="36.24" width="2.42" height="13.89"/><rect class="cls-2" x="137.1" y="36.24" width="2.42" height="13.89"/><rect class="cls-2" x="141.93" y="36.24" width="2.42" height="13.89"/><rect class="cls-2" x="146.76" y="36.24" width="2.42" height="13.89"/><rect class="cls-2" x="151.59" y="36.24" width="2.42" height="13.89"/><rect class="cls-2" x="156.42" y="36.24" width="2.42" height="13.89"/><rect class="cls-2" x="161.25" y="36.24" width="2.42" height="13.89"/><rect class="cls-2" x="166.09" y="36.24" width="2.42" height="13.89"/><rect class="cls-2" x="170.92" y="36.24" width="2.42" height="13.89"/><rect class="cls-2" x="175.75" y="36.24" width="2.42" height="13.89"/><rect class="cls-2" x="180.58" y="36.24" width="2.42" height="13.89"/><rect class="cls-2" x="185.41" y="36.24" width="2.42" height="13.89"/><rect class="cls-2" x="190.24" y="36.24" width="2.42" height="13.89"/><path class="cls-2" d="M504.07,94.25v13.86a5.38,5.38,0,0,0,2.42-.72V95A5.39,5.39,0,0,0,504.07,94.25Z" transform="translate(-309 -58)"/></g><g id="Krop"><rect class="cls-3" x="113.54" y="161.56" width="101.46" height="187.22" rx="25.44" ry="25.44"/><path class="cls-2" d="M455.94,219.56a16.3,16.3,0,0,0,32.25,0Z" transform="translate(-309 -58)"/><path class="cls-8" d="M422.54,386.85V671.91h27.78V455a11.35,11.35,0,0,1,11.35-11.35h23.21A11.35,11.35,0,0,1,496.22,455V671.91H524V386.85Z" transform="translate(-309 -58)"/><rect class="cls-8" x="108.11" y="597" width="38.65" height="17.51" rx="8.76" ry="8.76"/><rect class="cls-8" x="181.79" y="597" width="38.65" height="17.51" rx="8.76" ry="8.76"/><rect class="cls-4" x="160.35" y="330.66" width="3.02" height="54.96"/><path class="cls-4" d="M517.81,427.42c-13.34-15.93-9.57-38-9.53-38.19l-3-.54c-.18,1-4.07,23.61,10.16,40.65a42.39,42.39,0,0,0,8.54,7.75v-3.74A38.72,38.72,0,0,1,517.81,427.42Z" transform="translate(-309 -58)"/><path class="cls-4" d="M429.3,429.34c14.24-17,10.34-39.69,10.17-40.65l-3,.54c0,.22,3.8,22.26-9.53,38.19a40,40,0,0,1-4.43,4.49v3.89A42.23,42.23,0,0,0,429.3,429.34Z" transform="translate(-309 -58)"/><rect class="cls-4" x="112.94" y="324.62" width="102.67" height="11.47"/><rect class="cls-2" x="151.59" y="322.81" width="19.93" height="15.1" rx="7.55" ry="7.55"/><rect class="cls-8" x="183.6" y="322.81" width="5.44" height="14.49"/><rect class="cls-8" x="202.93" y="322.81" width="5.44" height="14.49"/><rect class="cls-8" x="118.37" y="322.81" width="5.44" height="14.49"/><rect class="cls-8" x="137.7" y="322.81" width="5.44" height="14.49"/></g><path class="cls-8" d="M422.54,671.91V655.22a7.14,7.14,0,0,0-5.43,6.93v3.21a7.16,7.16,0,0,0,7.15,7.16h24.35a7.16,7.16,0,0,0,7.15-7.16v-3.21a7.15,7.15,0,0,0-5.44-6.93v16.69Z" transform="translate(-309 -58)"/><path class="cls-8" d="M424.26,655a7,7,0,0,0-1.72.22v16.69h27.78V655.22a6.91,6.91,0,0,0-1.71-.22Z" transform="translate(-309 -58)"/><path class="cls-8" d="M496.22,671.91V655.22a7.14,7.14,0,0,0-5.43,6.93v3.21a7.16,7.16,0,0,0,7.15,7.16h24.35a7.16,7.16,0,0,0,7.15-7.16v-3.21a7.15,7.15,0,0,0-5.43-6.93v16.69Z" transform="translate(-309 -58)"/><path class="cls-8" d="M497.94,655a7,7,0,0,0-1.72.22v16.69H524V655.22a7.05,7.05,0,0,0-1.72-.22Z" transform="translate(-309 -58)"/></g></svg>