<svg xmlns="http://www.w3.org/2000/svg" xmlns:xlink="http://www.w3.org/1999/xlink" version="1.1" x="0px" y="0px" viewBox="0 0 100 125" enable-background="new 0 0 100 100" xml:space="preserve"><g><path d="M19.265,61.396l-1.757,4.137c0.375,0.716,0.846,1.341,1.414,1.869l0.004,11.217c0,1.25,1.014,2.263,2.263,2.263   c0,0,0.001,0,0.001,0c1.25-0.001,2.262-1.015,2.261-2.265l-0.003-9.199c0.607,0.089,1.25,0.135,1.931,0.135   c5.352,0,8.465-2.914,8.877-7.925L19.265,61.396z"/><path d="M89.27,27.189l2.904,3.284c2.264,0.716,3.923-0.563,4.006-0.607c-0.029-0.096-0.345-2.412-2.808-3.424   c-0.809-0.33-1.553-0.466-2.186-0.444C90.529,26.726,89.84,27.053,89.27,27.189z"/></g><path d="M97.312,37.88l-1.204-0.808c-0.016-0.02-8.477-10.277-8.477-10.277c0.801-0.14,1.559-0.475,2.178-1.024  c0.876-0.776,1.467-1.948,1.467-3.129c0-1.006-0.098-2.017-0.167-3.02c-0.09-1.291-1.84-1.717-2.518-0.619  c-0.287,0.462-0.232,1.103-0.265,1.625c-0.038,0.591-0.082,1.182-0.105,1.773c0.002-0.03,0.002-0.06,0.002-0.09  c-0.06,0.591-0.475,1.076-1.105,1.1c-0.506,0.019-1.029-0.039-1.536-0.057c-0.561-0.02-1.122-0.042-1.684-0.059  c-2.098-0.066-6.21,0.074-6.181,0.075c-0.065-0.001-0.465,0.024-0.778-0.155c-0.17-0.096-0.298-0.239-0.397-0.409  c-0.188-0.293-0.166-0.664-0.194-0.996c-0.034-0.415-0.065-0.83-0.104-1.245c-0.059-0.66-0.046-1.387-0.675-1.786  c-0.583-0.372-1.376-0.205-1.765,0.365c-0.288,0.424-0.262,1.021-0.306,1.511c-0.051,0.577-0.13,1.166-0.139,1.746  c-0.012,0.871,0.207,1.711,0.647,2.432H17.225c-0.269,0-0.535,0.017-0.797,0.048c-1.198,0.029-2.394,0.059-3.591,0.087  c-1.077,0.027-2.199-0.04-3.264,0.159c-1.485,0.279-2.791,1.246-3.62,2.495c-1.047,1.577-0.977,3.224-0.933,5.039  c0.094,3.816,0.188,7.634,0.281,11.451c0.062,2.5,0.124,4.999,0.185,7.499c0,0.056,0.009,0.107,0.018,0.157  c-0.479,0.251-0.829,0.729-0.887,1.29l-0.663,6.337c-0.04,0.379,0.236,0.72,0.616,0.758c0.024,0.004,0.048,0.004,0.071,0.004v0.164  h3.45v-0.17c0.372-0.045,0.64-0.379,0.603-0.754l-0.641-6.335c-0.056-0.553-0.393-1.023-0.857-1.279  c0.007-0.046,0.015-0.093,0.016-0.145c0.021-0.811,0.041-1.621,0.06-2.432c0.096-3.898,0.192-7.797,0.288-11.698  c0.03-1.235,0.061-2.47,0.092-3.706c0.025-1.052-0.054-2.172,0.092-3.215c0.192-1.376,1.393-2.438,2.752-2.492  c0.285,0.007,0.569,0.014,0.854,0.021c-0.656,1.056-1.037,2.299-1.037,3.627l0.005,46.874c0,1.25,1.014,2.263,2.263,2.263  c0,0,0.001,0,0.001,0c1.25-0.001,2.262-1.015,2.262-2.265l-0.003-9.522l3.585-8.448c0.085-0.201,0.286-0.33,0.504-0.325  l32.156,0.402c2.706-0.458,5.323-1.406,7.235-3.002v21.018c0,1.249,1.013,2.262,2.264,2.262c1.249,0,2.263-1.013,2.263-2.262V60.724  h3.439v18.016c0,1.249,1.014,2.262,2.265,2.262c1.248,0,2.262-1.013,2.262-2.262V60.252c2.729-1,4.968-3.472,5.442-6.346  l0.802-4.845l0,0c1.978-8.666,6.971-9.301,10.344-7.969l5.861,2.829c0.602,0.402,1.422,0.24,1.823-0.36l2.585-3.858  C98.076,39.102,97.912,38.283,97.312,37.88z M10.541,28.093c0.001,0,0.002,0,0.002,0C10.565,28.093,10.557,28.093,10.541,28.093z   M76.281,32.334c-0.332,0.358-0.758,0.718-1.268,1.069c-1.666,1.148-3.511,1.406-4.82,1.406c-1.044,0-1.752-0.163-1.768-0.167  c-0.215-0.061-0.355-0.265-0.335-0.487c0.003-0.039,0.371-3.844,3.366-5.909c2.562-1.766,4.109-0.875,4.805-0.187  c0.183,0.18,0.185,0.472,0.005,0.654s-0.474,0.184-0.654,0.004c-1.09-1.077-2.576-0.437-3.629,0.291  c-2.082,1.437-2.728,3.846-2.907,4.811c0.93,0.126,3.318,0.266,5.412-1.18c0.454-0.312,0.827-0.627,1.115-0.937  c0.174-0.188,0.468-0.197,0.653-0.023C76.444,31.854,76.455,32.146,76.281,32.334z"/><text x="0" y="115" fill="#000000" font-size="5px" font-weight="bold" font-family="'Helvetica Neue', Helvetica, Arial-Unicode, Arial, Sans-serif">Created by Cédric Villain</text><text x="0" y="120" fill="#000000" font-size="5px" font-weight="bold" font-family="'Helvetica Neue', Helvetica, Arial-Unicode, Arial, Sans-serif">from the Noun Project</text></svg>