<svg xmlns="http://www.w3.org/2000/svg" xmlns:xlink="http://www.w3.org/1999/xlink" version="1.1" x="0px" y="0px" viewBox="0 0 512 640" style="enable-background:new 0 0 512 512;" xml:space="preserve"><g><g><g><g><g><path d="M259.4,486.7c-0.5,0-1-0.1-1.4-0.3L62,410.6c-1.5-0.6-2.6-2.1-2.6-3.7v-78c0-2.2,1.8-4,4-4c2.2,0,4,1.8,4,4v75.2       l191.9,74.3l187.5-74.2v-76.1c0-2.2,1.8-4,4-4s4,1.8,4,4v78.8c0,1.6-1,3.1-2.5,3.7l-191.5,75.8       C260.4,486.6,259.9,486.7,259.4,486.7z"/></g><g><path d="M199.3,387.8c-0.5,0-1-0.1-1.5-0.3L62,332.6l-46.5-18.8c-1-0.4-1.8-1.2-2.2-2.3s-0.4-2.2,0.1-3.2l46.5-96.9       c0.9-1.9,3.1-2.8,5-2l86.5,33l107.2,41c1.1,0.4,2,1.3,2.4,2.4c0.4,1.1,0.3,2.3-0.4,3.4l-57.9,96.6       C202,387.1,200.6,387.8,199.3,387.8z M22.4,307.9L65,325.2l132.6,53.7l53.7-89.6l-102.8-39.3l-83-31.7L22.4,307.9z"/></g><g><path d="M312.3,387.8c-1.4,0-2.8-0.7-3.5-2l-32.3-57.2l-22.8-40.5c-0.5-1-0.6-2.2-0.2-3.3s1.3-1.9,2.3-2.3l193.7-73.1       c2-0.7,4.2,0.2,5,2.1l44.9,96.9c0.5,1,0.5,2.1,0.1,3.2s-1.2,1.8-2.2,2.2l-183.5,73.8C313.3,387.7,312.8,387.8,312.3,387.8z        M262.9,288.3l20.5,36.3l30.6,54.2l176.3-70.9l-41.6-89.7L262.9,288.3z"/></g><g><path d="M62.5,215.1c-1.6,0-3.1-1-3.7-2.6c-0.8-2.1,0.2-4.4,2.3-5.2l87.1-33.8c2.1-0.8,4.4,0.2,5.2,2.3       c0.8,2.1-0.2,4.4-2.3,5.2l-87.1,33.8C63.5,215,63,215.1,62.5,215.1z"/></g><g><path d="M450.9,215.4c-0.4,0-0.9-0.1-1.4-0.2l-86.4-31c-2.1-0.7-3.2-3-2.4-5.1c0.7-2.1,3-3.2,5.1-2.4l86.4,31       c2.1,0.7,3.2,3,2.4,5.1C454.1,214.3,452.5,215.4,450.9,215.4z"/></g><g><path d="M259.4,486.7c-2.2,0-4-1.8-4-4L253.2,290c0-2.2,1.7-4,4-4c2.2,0,4,1.7,4,4l2.2,192.7       C263.4,484.9,261.6,486.7,259.4,486.7C259.4,486.7,259.4,486.7,259.4,486.7z"/></g><g><path d="M363.4,250.2c-2.2,0-4-1.8-4-4V63.3c0-2.2,1.8-4,4-4s4,1.8,4,4v182.8C367.4,248.4,365.6,250.2,363.4,250.2z"/></g><g><path d="M149.9,250.2c-2.2,0-4-1.8-4-4V63.3c0-2.2,1.8-4,4-4s4,1.8,4,4v182.9C153.9,248.4,152.1,250.2,149.9,250.2z"/></g><g><path d="M256.7,101c-0.4,0-0.8-0.1-1.2-0.2L148.7,67.1l-1.3-0.4c-1.7-0.5-2.8-2.1-2.8-3.8s1.1-3.3,2.8-3.8L255.5,25       c0.8-0.2,1.6-0.2,2.4,0L366,59.1c1.7,0.5,2.8,2.1,2.8,3.8s-1.1,3.3-2.8,3.8l-1.3,0.4l-106.8,33.7       C257.5,101,257.1,101,256.7,101z M161.9,62.9l94.8,29.9l94.8-29.9L256.7,33L161.9,62.9z"/></g><g><path d="M189.3,222.1c-2.2,0-4-1.8-4-4v-83.3c0-2.2,1.8-4,4-4s4,1.8,4,4v83.3C193.3,220.3,191.6,222.1,189.3,222.1z"/></g><g><path d="M323.2,190.5c-2.2,0-4-1.8-4-4v-83.3c0-2.2,1.8-4,4-4s4,1.8,4,4v83.3C327.2,188.7,325.4,190.5,323.2,190.5z"/></g></g></g></g></g><text x="0" y="527" fill="#000000" font-size="5px" font-weight="bold" font-family="'Helvetica Neue', Helvetica, Arial-Unicode, Arial, Sans-serif">Created by ibrandify</text><text x="0" y="532" fill="#000000" font-size="5px" font-weight="bold" font-family="'Helvetica Neue', Helvetica, Arial-Unicode, Arial, Sans-serif">from the Noun Project</text></svg>