<svg xmlns="http://www.w3.org/2000/svg" viewBox="0 0 64 80" x="0px" y="0px"><title>coconut copy, vegetable, organic, vegetarian</title><g><path d="M59.67,36.81A100.93,100.93,0,0,0,56.1,26.46a95.18,95.18,0,0,0-3.72-8.81C47.75,10.3,37.6,7.42,29.59,7.83a30.17,30.17,0,0,0-14.14,4.66l0,0A28.25,28.25,0,0,0,11.7,15.4a14.84,14.84,0,0,1,2.84-9.54,1.5,1.5,0,0,0-2.47-1.72A17.47,17.47,0,0,0,9,17.68c.09.42.19.85.29,1.28s.23.93.31,1.4a11.1,11.1,0,0,1-.82,6.52,1.51,1.51,0,0,0,.78,2,1.41,1.41,0,0,0,.6.13,1.51,1.51,0,0,0,1.37-.9,14.32,14.32,0,0,0,1-8.26c0-.28-.12-.55-.19-.83A23.28,23.28,0,0,1,15,16.54a7,7,0,0,0,1.63,3.7A12.18,12.18,0,0,0,18,21.56a4.44,4.44,0,0,1,1.5,1.77c.23.79-.23,1.65-1,3a11.85,11.85,0,0,0-1.39,3,10.56,10.56,0,0,0-.17,3.13A13,13,0,0,1,17,34c-.06,1-.54,1.86-1.06,1.93l-.43,0A3,3,0,0,0,12.86,37a3.06,3.06,0,0,0-.47,1.45v.13c-.08,1.16-.46,2.4-1.14,2.58a3.45,3.45,0,0,1-1.74-.38,11.14,11.14,0,0,1-2.7-1.33.6.6,0,0,1-.08-.08,20.21,20.21,0,0,1-.58-7.73,21,21,0,0,1,1.71-6.05,1.5,1.5,0,1,0-2.74-1.24,24.22,24.22,0,0,0-1.95,6.93A23.36,23.36,0,0,0,4,40.7H4A30.44,30.44,0,0,0,15,56.16a30,30,0,0,0,17.53,5.53h.38l.92,0c8.2,0,13.85-4.14,19.81-8.51l1.12-.82c3.2-2.32,5.47-4.53,6.15-7.81C61.1,43.53,61.17,42.07,59.67,36.81ZM58,44c-.42,2-1.77,3.66-5,6l-1.13.82c-6,4.4-11.2,8.19-18.85,7.91h-.42a27.12,27.12,0,0,1-15.83-4.95,28.26,28.26,0,0,1-8.5-10.19l.24.09a7.17,7.17,0,0,0,2.51.58,3.55,3.55,0,0,0,1-.13c1.91-.5,3.13-2.36,3.36-5.14h.13a6.46,6.46,0,0,0,.78,0c2.33-.3,3.53-2.65,3.66-4.7a12.89,12.89,0,0,0,0-1.87A8,8,0,0,1,20,30.07a9.42,9.42,0,0,1,1.07-2.24c.89-1.52,1.9-3.25,1.31-5.32A6.76,6.76,0,0,0,20,19.3a9.78,9.78,0,0,1-1.08-1,4,4,0,0,1-.94-3,6.64,6.64,0,0,0,0-.84,27.75,27.75,0,0,1,11.76-3.65c6.9-.36,16.14,2.13,20.1,8.41.4.65,1.69,3.88,3.48,8.34a101.43,101.43,0,0,1,3.47,10.05C58.21,42.64,58,43.63,58,44Z"/></g><text x="0" y="79" fill="#000000" font-size="5px" font-weight="bold" font-family="'Helvetica Neue', Helvetica, Arial-Unicode, Arial, Sans-serif">Created by LUTFI GANI AL ACHMAD</text><text x="0" y="84" fill="#000000" font-size="5px" font-weight="bold" font-family="'Helvetica Neue', Helvetica, Arial-Unicode, Arial, Sans-serif">from the Noun Project</text></svg>