<svg xmlns="http://www.w3.org/2000/svg" xmlns:xlink="http://www.w3.org/1999/xlink" version="1.1" x="0px" y="0px" viewBox="0 0 64 80" style="enable-background:new 0 0 64 64;" xml:space="preserve"><g><path d="M24.281,28.797c-0.118,0.611,0.286,1.196,0.903,1.305c0.067,0.012,0.134,0.018,0.201,0.018c0.54,0,1.024-0.383,1.129-0.927   c0.118-0.611-0.286-1.196-0.903-1.305c-0.067-0.012-0.134-0.018-0.201-0.018C24.87,27.87,24.386,28.252,24.281,28.797z"/><path d="M29.434,31.999c0.067,0.012,0.134,0.018,0.201,0.018c0.54,0,1.024-0.383,1.129-0.927c0.118-0.611-0.286-1.196-0.903-1.305   c-0.067-0.012-0.134-0.018-0.201-0.018c-0.54,0-1.024,0.383-1.129,0.927C28.413,31.306,28.817,31.89,29.434,31.999z"/><path d="M20.707,30.436c0.54,0,1.024-0.383,1.129-0.927c0.118-0.611-0.286-1.196-0.903-1.305c-0.067-0.012-0.134-0.018-0.201-0.018   c-0.54,0-1.024,0.383-1.129,0.927c-0.118,0.611,0.286,1.196,0.903,1.305C20.574,30.431,20.641,30.436,20.707,30.436z"/><path d="M19.894,34.302c-0.175,0.908,0.034,1.852,0.587,2.657c0.667,0.969,1.773,1.654,3.035,1.877   c0.297,0.052,0.591,0.078,0.881,0.078c2.034,0,3.809-1.246,4.157-3.048v0c0.175-0.909-0.034-1.853-0.587-2.658   c-0.667-0.969-1.773-1.653-3.035-1.876C22.548,30.91,20.29,32.243,19.894,34.302z M26.318,34.341   c0.175,0.255,0.364,0.661,0.271,1.146c-0.188,0.976-1.437,1.606-2.725,1.379c-0.738-0.13-1.371-0.51-1.736-1.041   c-0.175-0.255-0.364-0.66-0.271-1.145c0.162-0.841,1.111-1.427,2.195-1.427c0.174,0,0.352,0.015,0.53,0.047   C25.32,33.431,25.953,33.811,26.318,34.341z"/><path d="M62.492,46.173c-0.535-0.888-1.437-1.512-2.474-1.712c-1.788-0.348-3.593,0.655-4.186,2.277l-5.466,12.902   c-0.344,0.938-1.345,1.497-2.376,1.332c-0.638-0.103-1.186-0.467-1.504-1c-0.299-0.501-0.359-1.079-0.177-1.602l10.635-28.037   c1.338-3.795,1.75-9.671-1.109-14.778c-2.425-4.332-6.791-7.282-12.624-8.532l-0.006,0.029c-2.176-2.199-4.832-3.899-7.844-4.935   C25.072-1.422,13.871,3.782,9.835,13.747c-0.755-0.406-1.2-0.51-1.638-0.357c-0.33,0.114-0.584,0.369-0.697,0.699L1.516,31.452   c-0.196,0.568-0.199,1.264,1.307,2.475l-0.706,2.048C0.343,41.123,0.681,46.653,3.07,51.547c2.389,4.894,6.542,8.564,11.694,10.337   c2.192,0.754,4.425,1.112,6.624,1.112c8.467,0,16.398-5.312,19.305-13.749l0.724-2.101c1.356-0.061,2.292-0.384,2.537-1.093   l5.983-17.363c0.114-0.33,0.07-0.688-0.119-0.98c-0.252-0.389-0.666-0.582-1.508-0.726c0.026-0.092,0.055-0.183,0.08-0.275l0.003,0   c0-0.003-0.001-0.006-0.001-0.009c1.294-4.762,0.846-9.769-1.339-14.246c-0.472-0.966-1.031-1.87-1.634-2.736   c3.959,1.344,6.88,3.618,8.669,6.814c2.533,4.525,2.162,9.753,0.977,13.114l-10.637,28.04c-0.384,1.1-0.26,2.307,0.339,3.311   c0.623,1.043,1.681,1.754,2.904,1.95c1.973,0.314,3.899-0.784,4.554-2.572l5.466-12.902c0.277-0.757,1.115-1.21,1.948-1.047   c0.481,0.093,0.896,0.377,1.139,0.78c0.227,0.377,0.282,0.814,0.154,1.231l-4.357,14.272l1.913,0.584l4.357-14.272   C63.136,48.067,63.007,47.03,62.492,46.173z M46.299,26.747c-0.25-0.023-0.503-0.047-0.791-0.073   c-0.249-0.023-0.509-0.046-0.779-0.071c-0.764-6.827-4.185-13.031-9.563-17.393c0.889-0.24,1.79-0.408,2.695-0.519   c3.332,3.564,8.192,10.054,8.515,17.792C46.35,26.57,46.326,26.659,46.299,26.747z M32.09,29.378   c0.958,1.964,1.094,4.184,0.382,6.25c-1.471,4.267-6.141,6.543-10.41,5.072c-2.068-0.711-3.735-2.185-4.694-4.149   c-0.959-1.964-1.095-4.184-0.383-6.25c1.167-3.387,4.351-5.519,7.75-5.519c0.883,0,1.78,0.144,2.66,0.447   C29.464,25.94,31.131,27.414,32.09,29.378z M38.455,49.461c-5.028,5.905-12.87,8.027-17.69,8.784   c-0.657-0.652-1.267-1.354-1.831-2.098c7.012-0.289,15.925-3.944,19.173-9.213c0.421,0.058,0.828,0.105,1.22,0.141l-0.524,1.521   C38.7,48.893,38.571,49.173,38.455,49.461z M20.08,60.365c0.004-0.001,0.009-0.001,0.014-0.002c0.24,0.217,0.491,0.42,0.74,0.624   c-1.138-0.035-2.284-0.184-3.426-0.439c-5.511-5.835-7.96-14.454-6.326-22.044c0.604,0.275,1.224,0.549,1.858,0.821   c-1.453,7.534,1.497,15.92,7.138,21.022L20.08,60.365z M7.236,36.658l0.006-0.017c0.008,0.004,0.014,0.008,0.022,0.012   c0.625,0.327,1.29,0.656,1.972,0.987c-1.754,7.373-0.014,15.447,4.571,21.712c-1.203-0.542-2.33-1.209-3.373-1.982   C7.334,51.808,4.883,43.487,7.236,36.658z M14.564,43.426c1.082,0.279,2.207,0.424,3.349,0.424c1.596,0,3.222-0.284,4.802-0.826   c0.865,0.281,2.109,0.676,3.565,1.11c-2.97,1.454-7.815,2.502-11.575,1.547C14.616,44.931,14.57,44.179,14.564,43.426z    M19.139,41.783c-1.539,0.154-3.061,0.014-4.479-0.413c0.042-0.42,0.098-0.838,0.168-1.254   C16.222,40.686,17.663,41.244,19.139,41.783z M17.585,54.159c-0.34-0.575-0.646-1.172-0.933-1.778   c0.339,0.016,0.678,0.03,1.019,0.03c5.862,0,11.831-2.337,15.974-6.315c0.775,0.176,1.544,0.338,2.293,0.48   C32.687,50.849,24.362,54.345,17.585,54.159z M15.796,50.313c-0.292-0.824-0.53-1.664-0.721-2.516   c0.9,0.162,1.833,0.246,2.78,0.246c4.287,0,8.772-1.505,11.057-3.15c0.77,0.214,1.567,0.427,2.373,0.633   C27.101,49.02,21.284,50.845,15.796,50.313z M22.745,18.268c2.432,0.978,4.563,2.89,5.951,5.283   c-0.217-0.071-0.432-0.139-0.65-0.214c-2.359-0.812-4.545-1.767-6.555-2.754C21.848,19.782,22.274,19.013,22.745,18.268z    M31.304,24.338c-1.425-3.484-4.102-6.288-7.377-7.74c0.471-0.594,0.968-1.168,1.505-1.71c3.995,1.786,6.981,6.126,8.15,10.027   C32.834,24.741,32.074,24.549,31.304,24.338z M35.777,25.383c-1.002-4.362-4.244-9.52-8.755-11.934   c0.666-0.55,1.361-1.068,2.089-1.537c4.818,3.09,8.337,8.385,9.318,13.935C37.574,25.714,36.689,25.562,35.777,25.383z    M40.503,26.144c-0.866-5.983-4.445-11.768-9.459-15.34c0.601-0.306,1.215-0.579,1.84-0.828c5.44,3.968,8.964,9.87,9.815,16.426   C42.007,26.329,41.273,26.243,40.503,26.144z M19.702,19.671c-0.632-0.334-1.24-0.665-1.825-0.996   c3.306-7.181,10.658-12.648,18.745-13.878c1.051,0.497,2.047,1.083,2.973,1.759C31.265,6.724,23.12,12.04,19.702,19.671z    M33.04,3.526c-7.413,2.101-13.72,7.328-16.904,14.138c-0.679-0.406-1.315-0.796-1.909-1.169c2.63-6.385,9.32-11.113,14.937-13.481   C30.451,3.044,31.749,3.213,33.04,3.526z M23.215,3.875c-4.385,2.751-8.592,6.672-10.707,11.528   c-0.089-0.057-0.193-0.123-0.278-0.178c-0.242-0.156-0.454-0.292-0.665-0.427C13.643,9.394,18.032,5.508,23.215,3.875z    M9.089,15.615c0.533,0.309,1.304,0.806,2.058,1.292c2.523,1.625,6.309,4.06,11.007,6.213c-3.184,0.837-5.909,3.192-7.059,6.53   c-0.886,2.572-0.717,5.334,0.476,7.779c0.186,0.381,0.4,0.741,0.628,1.091C8.826,35.561,4.28,32.847,3.498,31.838L9.089,15.615z    M4.007,36.626l0.522-1.515c0.283,0.176,0.599,0.362,0.934,0.555l-0.117,0.341c-1.887,5.475-0.98,11.752,0.944,17.056   c-0.524-0.759-1.011-1.549-1.423-2.392C2.713,46.256,2.408,41.269,4.007,36.626z M23.974,60.797   c-0.438-0.269-0.863-0.559-1.275-0.867c3.476-0.683,7.916-2.015,11.95-4.586C31.797,58.296,28.03,60.218,23.974,60.797z    M42.154,45.137c-1.235,0.315-6.492-0.343-14.129-2.549c2.87-0.985,5.276-3.226,6.338-6.308c0.886-2.572,0.717-5.334-0.476-7.779   c-0.297-0.608-0.648-1.178-1.048-1.705c5.023,1.19,9.501,1.598,12.488,1.869c0.894,0.082,1.807,0.164,2.418,0.249L42.154,45.137z    M40.412,8.542c0.521,0.01,1.042,0.041,1.559,0.099c1.314,1.367,2.43,2.937,3.286,4.69c0.967,1.982,1.541,4.081,1.758,6.212   C45.422,15.019,42.736,11.226,40.412,8.542z"/></g><text x="0" y="79" fill="#000000" font-size="5px" font-weight="bold" font-family="'Helvetica Neue', Helvetica, Arial-Unicode, Arial, Sans-serif">Created by Eucalyp</text><text x="0" y="84" fill="#000000" font-size="5px" font-weight="bold" font-family="'Helvetica Neue', Helvetica, Arial-Unicode, Arial, Sans-serif">from the Noun Project</text></svg>