<svg xmlns="http://www.w3.org/2000/svg" data-name="Слой 1" viewBox="0 0 128 160" x="0px" y="0px"><title>Cubes, sugar, sweet, food, salt, spice, ingredient, mound, flour</title><path d="M57.38,84H2A2,2,0,0,1,.59,80.59L56.46,24.71a10.67,10.67,0,0,1,15.08,0L90.91,44.09a2,2,0,0,1-2.83,2.83L68.71,27.54a6.67,6.67,0,0,0-9.42,0L6.83,80H57.38a2,2,0,1,1,0,4Z"/><path d="M113.37,71.37a2,2,0,0,1-1.41-.59L97.34,56.16a2,2,0,0,1,2.83-2.83L114.79,68a2,2,0,0,1-1.41,3.41Z"/><path d="M126,84h-7.37a2,2,0,0,1,0-4h2.55L117,75.79A2,2,0,0,1,119.79,73l7.62,7.62A2,2,0,0,1,126,84Z"/><path d="M93.38,84H82.63a2,2,0,0,1,0-4H93.38a2,2,0,1,1,0,4Z"/><path d="M62,36a2,2,0,1,0,2,2,2,2,0,0,0-2-2Z"/><path d="M90,56a2,2,0,1,0,2,2,2,2,0,0,0-2-2Z"/><path d="M58,56a2,2,0,1,0,1.62.83A2,2,0,0,0,58,56Z"/><path d="M66,76a2,2,0,1,0,2,2,2,2,0,0,0-2-2Z"/><path d="M34,64a2,2,0,1,0,2,2,2,2,0,0,0-2-2Z"/><path d="M102,84a2,2,0,1,0,2,2,2,2,0,0,0-2-2Z"/><path d="M82,96H58a2,2,0,0,1-2-2V70a2,2,0,0,1,2-2H82a2,2,0,0,1,2,2V94A2,2,0,0,1,82,96ZM60,92H80V72H60Z"/><path d="M118,96H94a2,2,0,0,1-2-2V70a2,2,0,0,1,2-2h24a2,2,0,0,1,2,2V94A2,2,0,0,1,118,96ZM96,92h20V72H96Z"/><path d="M98,72H74a2,2,0,0,1-2-2V46a2,2,0,0,1,2-2H98a2,2,0,0,1,2,2V70A2,2,0,0,1,98,72ZM76,68H96V48H76Z"/><path d="M110,80a2,2,0,1,0,2,2,2,2,0,0,0-2-2Z"/><text x="0" y="143" fill="#000000" font-size="5px" font-weight="bold" font-family="'Helvetica Neue', Helvetica, Arial-Unicode, Arial, Sans-serif">Created by LAFS</text><text x="0" y="148" fill="#000000" font-size="5px" font-weight="bold" font-family="'Helvetica Neue', Helvetica, Arial-Unicode, Arial, Sans-serif">from the Noun Project</text></svg>