<svg xmlns="http://www.w3.org/2000/svg" viewBox="0 0 64 80" x="0px" y="0px"><rect x="44" y="23" width="2" height="2"/><path d="M46,14c0-6.007-4.015-10.276-7.382-12.8l-1.2,1.6C40.421,5.051,44,8.82,44,14v7h2Z"/><rect x="18" y="16" width="2" height="11"/><path d="M7,37a7.009,7.009,0,0,0,7,7h.355A8.985,8.985,0,0,0,11,51a1,1,0,0,0,1,1h6a8.915,8.915,0,0,0,1.325-.109A13,13,0,0,0,32,62a12.935,12.935,0,0,0,7.1-2.111,12.562,12.562,0,0,0,2.445-2.077A8.937,8.937,0,0,0,46,59h6a1,1,0,0,0,1-1,8.985,8.985,0,0,0-3.355-7H50a7,7,0,0,0,0-14H42V14c0-7.562-9.2-11.739-9.594-11.914a1,1,0,0,0-.812,0C31.2,2.261,22,6.438,22,14V30H14A7.009,7.009,0,0,0,7,37Zm6.071,13A7.011,7.011,0,0,1,20,44h4.929A7.011,7.011,0,0,1,18,50Zm8.191,1.379A9.008,9.008,0,0,0,27,43a1,1,0,0,0-1-1,5,5,0,1,1,5-5V59.955a10.962,10.962,0,0,1-6.47-2.878A11.079,11.079,0,0,1,21.262,51.379ZM34,16v4H30V16Zm-4-2V10h4v4ZM40,32H36V28h4Zm0-6H36V22h4Zm0-6H36V16h4ZM28,20H24V16h4Zm0,2v4H24V22Zm2,0h4v4H30Zm4,6v4H30.889A7.046,7.046,0,0,0,30,31.264V28ZM33,39.111V37a6.955,6.955,0,0,0-.685-3H34v4.264A7.034,7.034,0,0,0,33,39.111Zm5.012,19.1A10.928,10.928,0,0,1,33,59.955V44a5,5,0,1,1,5,5,1,1,0,0,0-1,1,8.968,8.968,0,0,0,2.9,6.6A10.622,10.622,0,0,1,38.012,58.213ZM50.929,57H46a7.011,7.011,0,0,1-6.929-6H44A7.011,7.011,0,0,1,50.929,57ZM49,44v2h2V44a6.973,6.973,0,0,0-2.111-5H50a5,5,0,0,1,0,10H42.893c.018-.018.038-.033.056-.051A6.989,6.989,0,0,0,42.889,39H44A5.006,5.006,0,0,1,49,44ZM39,37H38a6.949,6.949,0,0,0-2,.3V34h4v3ZM36,14V10h2.821A7.743,7.743,0,0,1,40,14Zm1.306-6H36V6.763A15.878,15.878,0,0,1,37.306,8ZM32,4.111a21.583,21.583,0,0,1,2,1.163V8H30V5.278A21.943,21.943,0,0,1,32,4.111ZM28,6.77V8H26.7A15.862,15.862,0,0,1,28,6.77ZM25.184,10H28v4H24A7.725,7.725,0,0,1,25.184,10ZM24,28h4v2.3a6.956,6.956,0,0,0-2-.3H24ZM15,39V37a5.006,5.006,0,0,1,5-5h1.111a6.989,6.989,0,0,0-.06,9.949c.018.018.038.033.056.051H14a5,5,0,0,1,0-10h1.111A6.973,6.973,0,0,0,13,37v2Z"/><text x="0" y="79" fill="#000000" font-size="5px" font-weight="bold" font-family="'Helvetica Neue', Helvetica, Arial-Unicode, Arial, Sans-serif">Created by Nhor</text><text x="0" y="84" fill="#000000" font-size="5px" font-weight="bold" font-family="'Helvetica Neue', Helvetica, Arial-Unicode, Arial, Sans-serif">from the Noun Project</text></svg>