<svg height='100px' width='100px'  fill="#000000" xmlns="http://www.w3.org/2000/svg" xmlns:xlink="http://www.w3.org/1999/xlink" xmlns:a="http://ns.adobe.com/AdobeSVGViewerExtensions/3.0/" version="1.1" x="0px" y="0px" viewBox="-2.665 -4.186 100 100" enable-background="new -2.665 -4.186 100 100" xml:space="preserve"><path fill="none" d="M90.14,42.13c0.105-0.594,0.17-1.204,0.172-1.829c0.004-4.591-2.979-8.477-7.109-9.862l-1.672-0.561  l0.201-1.751c0.043-0.387,0.068-0.769,0.068-1.149c-0.012-5.748-4.662-10.398-10.406-10.407c0-0.003-0.109,0.006-0.367,0.023  l-1.734,0.066l-0.455-1.672c-1.205-4.415-5.232-7.674-10.028-7.671c-2.304,0.003-4.407,0.752-6.141,2.021l-0.677,0.495l-0.838-0.085  c-0.082-0.01-0.209-0.02-0.383-0.035l-1.006-0.093l-0.575-0.822c-1.892-2.691-4.992-4.442-8.519-4.442  c-3.559,0-6.686,1.783-8.568,4.509l-0.824,1.193l-1.417-0.295c-0.694-0.146-1.412-0.225-2.145-0.225  c-4.371-0.003-8.103,2.698-9.646,6.519l-0.319,0.788l-0.769,0.365c-3.526,1.676-5.967,5.243-5.964,9.398  c0,0.576,0.061,1.161,0.162,1.76l0.269,1.577l-1.421,0.73c-3.37,1.73-5.676,5.218-5.676,9.258c0.002,0.755,0.089,1.49,0.242,2.198  H90.14z"></path><path d="M94.401,43.055c0.17-0.893,0.268-1.811,0.268-2.753c-0.006-5.918-3.486-11.015-8.514-13.368  c-0.023-7.758-6.029-14.106-13.646-14.679c-2.17-5.446-7.479-9.291-13.7-9.293c-2.617,0-5.079,0.693-7.208,1.889  C48.904,1.877,45.005,0,40.671,0c-4.535,0-8.602,2.053-11.305,5.275c-0.54-0.06-1.091-0.092-1.649-0.092  c-5.903,0-10.993,3.468-13.35,8.471c-4.584,2.497-7.702,7.359-7.705,12.952c0,0.33,0.014,0.653,0.036,0.971  C2.669,30.205,0,34.756,0,39.932c0,1.02,0.104,2.017,0.301,2.979c0.143,21.258,17.606,38.805,40.306,41.747l-3.374,5.27  c-0.597,0.937-0.107,1.702,1.09,1.702h18.063c1.197,0,1.686-0.766,1.088-1.702l-3.374-5.27  C76.749,81.722,94.183,64.248,94.401,43.055z M10.029,30.674l1.421-0.73l-0.269-1.577c-0.102-0.599-0.162-1.184-0.162-1.76  c-0.003-4.155,2.438-7.723,5.964-9.398l0.769-0.365l0.319-0.788c1.543-3.82,5.274-6.521,9.646-6.519c0.732,0,1.45,0.08,2.145,0.225  l1.417,0.295l0.824-1.193c1.883-2.727,5.01-4.509,8.568-4.509c3.526,0,6.627,1.751,8.519,4.442l0.575,0.822l1.006,0.093  c0.174,0.015,0.301,0.024,0.383,0.035l0.838,0.085l0.677-0.495c1.733-1.27,3.837-2.018,6.141-2.021  c4.796-0.003,8.823,3.256,10.028,7.671l0.455,1.672l1.734-0.066c0.258-0.017,0.367-0.026,0.367-0.023  c5.744,0.009,10.395,4.66,10.406,10.407c0,0.381-0.025,0.762-0.068,1.149l-0.201,1.751l1.672,0.561  c4.131,1.385,7.113,5.271,7.109,9.862c-0.002,0.625-0.066,1.235-0.172,1.829H4.596c-0.153-0.708-0.24-1.443-0.242-2.198  C4.354,35.892,6.659,32.405,10.029,30.674z"></path></svg>