<svg xmlns="http://www.w3.org/2000/svg" xmlns:xlink="http://www.w3.org/1999/xlink" version="1.1" x="0px" y="0px" viewBox="0 0 120 150" style="enable-background:new 0 0 120 120;" xml:space="preserve"><path d="M76.7,10c-1.4,0-2.5,1.1-2.5,2.5v6.9l-6.1,3.8V12.5c0-1.4-1.1-2.5-2.5-2.5s-2.5,1.1-2.5,2.5v13.8l-1.3,0.8  c-0.7,0.4-1.3,0.9-1.8,1.5c-0.5-0.6-1.1-1-1.8-1.5l-1.3-0.8V12.5c0-1.4-1.1-2.5-2.5-2.5s-2.5,1.1-2.5,2.5v10.7l-6.1-3.8v-6.9  c0-1.4-1.1-2.5-2.5-2.5s-2.5,1.1-2.5,2.5v68.8c0,0,0,0,0,0.1c0,3.1,1.6,6.1,4.3,7.7l12.4,7.8v10.6c0,1.4,1.1,2.5,2.5,2.5  s2.5-1.1,2.5-2.5V96.9l12.4-7.8c2.6-1.6,4.2-4.6,4.3-7.8c0,0,0,0,0-0.1V12.5C79.2,11.1,78,10,76.7,10z M45.8,55.6l0-4.6l9.7,6.1  c1.2,0.7,1.9,2.1,1.9,3.6l0,4.6l-10.2-6.4C46.4,58.1,45.8,56.9,45.8,55.6z M72.7,58.8l-10.2,6.4l0-4.6c0-1.5,0.7-2.8,1.9-3.6  l9.7-6.1l0,4.6C74.2,56.9,73.6,58.1,72.7,58.8z M62.5,73.5c0-1.3,0.6-2.5,1.5-3.2l10.2-6.4l0,4.6c0,1.5-0.7,2.8-1.9,3.6v0l-9.7,6.1  L62.5,73.5z M74.2,42.7c0,1.5-0.7,2.8-1.9,3.6v0l-9.7,6.1l0-4.6c0-1.4,0.7-2.7,1.7-3.4l9.9-6.2L74.2,42.7z M55.8,44.4  c1.1,0.8,1.7,2.1,1.7,3.4l0,4.6l-9.7-6.1c-1.2-0.7-1.9-2.1-1.9-3.6l0-4.6L55.8,44.4z M47.8,72c-1.2-0.7-1.9-2.1-1.9-3.6l0-4.6  L56,70.3c0.9,0.8,1.5,2,1.5,3.2l0,4.6L53,75.3L47.8,72z M64.4,31.4l9.7-6.1l0,4.6c0,1.4-0.7,2.7-1.8,3.4l-9.9,6.2l0-4.6  C62.5,33.5,63.2,32.1,64.4,31.4z M55.6,31.4c1.2,0.7,1.9,2.1,1.9,3.6l0,4.6l-9.9-6.2c-1.1-0.8-1.8-2.1-1.8-3.4l0-4.6L55.6,31.4z   M47.8,84.9C47.8,84.9,47.8,84.9,47.8,84.9c-1.2-0.7-1.9-2.1-1.9-3.6l0-4.6l9.7,6.1c1.2,0.7,1.9,2.1,1.9,3.6l0,4.6L47.8,84.9z   M72.2,84.9C72.2,84.9,72.2,84.9,72.2,84.9L62.5,91l0-4.6c0-1.5,0.7-2.8,1.9-3.6l9.7-6.1l0,4.6C74.2,82.8,73.4,84.1,72.2,84.9z"/><text x="0" y="135" fill="#000000" font-size="5px" font-weight="bold" font-family="'Helvetica Neue', Helvetica, Arial-Unicode, Arial, Sans-serif">Created by Symbolon</text><text x="0" y="140" fill="#000000" font-size="5px" font-weight="bold" font-family="'Helvetica Neue', Helvetica, Arial-Unicode, Arial, Sans-serif">from the Noun Project</text></svg>