<svg xmlns="http://www.w3.org/2000/svg" xmlns:xlink="http://www.w3.org/1999/xlink" version="1.1" x="0px" y="0px" viewBox="0 0 100 125" enable-background="new 0 0 100 100" xml:space="preserve"><g><path d="M50.001,94.602c-0.809,0-1.556-0.435-1.956-1.138l0,0c-0.043-0.075-4.375-7.553-9.967-8.206   c-0.945-0.109-1.895-0.166-2.824-0.166c-6.939,0-11.018,3.027-11.058,3.058c-0.976,0.74-2.364,0.561-3.123-0.398l-8.567-10.834   c-0.392-0.495-0.557-1.131-0.457-1.754s0.458-1.175,0.985-1.521c0.128-0.085,13.078-8.814,12.821-22.135   c-0.288-15.016-11.615-17.153-11.73-17.174c-0.629-0.108-1.182-0.48-1.521-1.021c-0.339-0.541-0.433-1.2-0.258-1.814l3.352-11.723   c0.276-0.965,1.159-1.631,2.163-1.631c17.34,0,19.987-10.88,20.012-10.989c0.231-1.027,1.143-1.757,2.195-1.757h19.863   c1.053,0,1.964,0.729,2.195,1.757c0.104,0.432,2.855,10.989,20.01,10.989c1.004,0,1.887,0.665,2.163,1.631l3.353,11.723   c0.176,0.613,0.082,1.273-0.257,1.814c-0.34,0.54-0.893,0.912-1.521,1.021c-0.455,0.085-11.444,2.292-11.729,17.173   c-0.258,13.321,12.692,22.051,12.823,22.138c0.524,0.348,0.882,0.9,0.981,1.521c0.099,0.622-0.065,1.258-0.456,1.752l-8.567,10.834   c-0.758,0.959-2.146,1.14-3.123,0.398c-0.031-0.023-4.211-3.058-11.059-3.058c-0.929,0-1.879,0.057-2.823,0.166   c-4.668,0.546-8.775,6.106-9.964,8.203C51.559,94.166,50.812,94.602,50.001,94.602z M35.255,80.592   c1.103,0,2.228,0.066,3.345,0.197c5.133,0.599,9.16,4.699,11.401,7.586c2.24-2.887,6.266-6.987,11.399-7.586   c1.117-0.131,2.242-0.197,3.345-0.197c5.538,0,9.649,1.642,11.881,2.814l5.903-7.466c-4.104-3.305-13.125-12.012-12.884-24.521   c0.271-14.065,8.809-19.135,13.078-20.793l-2.292-8.015c-15.364-0.58-20.549-8.974-22.104-12.714H41.673   c-1.554,3.74-6.74,12.134-22.105,12.714l-2.291,8.015c4.27,1.658,12.808,6.727,13.078,20.793   c0.242,12.509-8.779,21.216-12.883,24.521l5.903,7.466C25.607,82.233,29.719,80.592,35.255,80.592z"/></g><text x="0" y="115" fill="#000000" font-size="5px" font-weight="bold" font-family="'Helvetica Neue', Helvetica, Arial-Unicode, Arial, Sans-serif">Created by Lisa Staudinger</text><text x="0" y="120" fill="#000000" font-size="5px" font-weight="bold" font-family="'Helvetica Neue', Helvetica, Arial-Unicode, Arial, Sans-serif">from the Noun Project</text></svg>