<svg xmlns="http://www.w3.org/2000/svg" xmlns:xlink="http://www.w3.org/1999/xlink" version="1.0" x="0px" y="0px" viewBox="0 0 331.6 274.875" enable-background="new 0 0 331.6 219.9" xml:space="preserve"><path d="M212.5,62.5c1.9,0,3.4,1.5,3.4,3.4v142.7c0,1.9-1.5,3.4-3.4,3.4H111.2c-1.9,0-3.4-1.5-3.4-3.4V65.8c0-1.9,1.5-3.4,3.4-3.4  H212.5 M212.5,54.5H111.2c-6.3,0-11.4,5.1-11.4,11.4v142.7c0,6.3,5.1,11.4,11.4,11.4h101.3c6.3,0,11.4-5.1,11.4-11.4V65.8  C223.9,59.6,218.8,54.5,212.5,54.5L212.5,54.5z"/><path d="M177.2,43.8h-27.3c-5.6,0-10.6-3.8-12.2-9.1l-8.2-28c-0.5-1.6-0.2-3.3,0.8-4.6c1-1.3,2.5-2.1,4.2-2.1h188.7  c4.6,0,8.3,3.7,8.3,8.3s-3.7,8.3-8.3,8.3H199.9l-11.7,20.6C186,41.3,181.7,43.8,177.2,43.8z M135.6,6l7.9,27  c0.8,2.8,3.5,4.8,6.4,4.8h27.3c2.4,0,4.6-1.3,5.8-3.4l13.4-23.7h126.9c1.3,0,2.3-1.1,2.3-2.3S324.6,6,323.3,6H135.6z"/><g><path d="M67.7,104.4c1.8,0,3.2,1.4,3.2,3.2v102.1c0,1.8-1.4,3.2-3.2,3.2H10.2c-1.8,0-3.2-1.4-3.2-3.2V107.6c0-1.8,1.4-3.2,3.2-3.2   H67.7 M67.7,97.4H10.2C4.6,97.4,0,102,0,107.6v102.1c0,5.6,4.6,10.2,10.2,10.2h57.5c5.6,0,10.2-4.6,10.2-10.2V107.6   C77.9,102,73.4,97.4,67.7,97.4L67.7,97.4z"/><path d="M64.2,101.9H13.7c-3.1,0-5.6-2.5-5.6-5.6v-9.7c0-3.1,2.5-5.6,5.6-5.6h50.5c3.1,0,5.6,2.5,5.6,5.6v9.7   C69.8,99.4,67.3,101.9,64.2,101.9z M15.1,94.9h47.7v-6.9H15.1V94.9z"/><g><path d="M21.4,138.9H4.1c-1.9,0-3.5-1.6-3.5-3.5s1.6-3.5,3.5-3.5h17.3c1.9,0,3.5,1.6,3.5,3.5S23.4,138.9,21.4,138.9z"/><path d="M21.4,163.2H4.1c-1.9,0-3.5-1.6-3.5-3.5s1.6-3.5,3.5-3.5h17.3c1.9,0,3.5,1.6,3.5,3.5S23.4,163.2,21.4,163.2z"/><path d="M21.4,187.4H4.1c-1.9,0-3.5-1.6-3.5-3.5s1.6-3.5,3.5-3.5h17.3c1.9,0,3.5,1.6,3.5,3.5S23.4,187.4,21.4,187.4z"/></g><path d="M62.6,85.1L55.7,84c0-0.1,2.1-14.9-8-19.3L46,63.9l-0.3-1.9c-0.1-0.3-1.5-8.1-7.3-8.1c-5.8,0-7.2,8.1-7.3,8.1l-0.3,1.9   l-1.7,0.8c-10.1,4.5-8,19.2-8,19.3l-6.9,1.1c0-0.2-0.8-5,0.2-10.6c1.3-7.1,4.8-12.4,10.2-15.4c1.4-5,5.5-12.2,13.8-12.2   s12.4,7.2,13.8,12.2c5.4,3,8.9,8.3,10.2,15.4C63.4,80.1,62.7,84.9,62.6,85.1z"/></g><text x="0" y="234.9" fill="#000000" font-size="5px" font-weight="bold" font-family="'Helvetica Neue', Helvetica, Arial-Unicode, Arial, Sans-serif">Created by Chiara Rossi</text><text x="0" y="239.9" fill="#000000" font-size="5px" font-weight="bold" font-family="'Helvetica Neue', Helvetica, Arial-Unicode, Arial, Sans-serif">from the Noun Project</text></svg>