<svg xmlns="http://www.w3.org/2000/svg" viewBox="0 0 64 80" x="0px" y="0px"><g><path d="M27.414,40l3.293,3.293a1,1,0,0,1,.241,1.023L29.388,49h1.994l2.478-4.956L31.434,40Z"/><path d="M40.12,40l4.461,3.186a1,1,0,0,1,.4.979L44.181,49h2.065L47.9,43.2,45.5,40Z"/><path d="M54.978,29.565a9.245,9.245,0,0,1-6.7-2.874,1,1,0,0,1,1.446-1.382,7.249,7.249,0,0,0,10.074.42l.181-.16A12.005,12.005,0,0,0,48,14H27.98a19.86,19.86,0,0,0-11.752,3.818,1,1,0,0,1-1.246-.055A3,3,0,0,0,13,17H8l4.154,3.121a1,1,0,0,1,.182,1.421A19.776,19.776,0,0,0,10.1,25.054L6.9,31.448A1,1,0,0,1,6,32H4v3a3,3,0,0,0,3,3H18a1,1,0,0,1,1,1v4a.989.989,0,0,1-.081.394L16.517,49h2.968L24,42.68V39h.009a1,1,0,0,1,.067-.383.985.985,0,0,1,.294-.382l-.006-.007,3.886-3.2V33h2v2.5a1,1,0,0,1-.364.772L27.787,38H45.713l-.243-.152A1,1,0,0,1,45,37V33h2v3.446l3.53,2.206h0l4,2.5A1,1,0,0,1,55,42v7h2.307L60,41.819V28.069A9.222,9.222,0,0,1,54.978,29.565ZM15,29.5A1.5,1.5,0,1,1,16.5,28,1.5,1.5,0,0,1,15,29.5Z"/></g><text x="0" y="79" fill="#000000" font-size="5px" font-weight="bold" font-family="'Helvetica Neue', Helvetica, Arial-Unicode, Arial, Sans-serif">Created by supalerk laipawat</text><text x="0" y="84" fill="#000000" font-size="5px" font-weight="bold" font-family="'Helvetica Neue', Helvetica, Arial-Unicode, Arial, Sans-serif">from the Noun Project</text></svg>